<svg viewBox="0 0 512 512" xmlns="http://www.w3.org/2000/svg">
  <g fill="#fff" transform="translate(77.5 78)">
    <path d="m178-15c5.398298 0 10.771407.2231558 16.109983.6670985 8.255776.6865296 14.391862 7.93570003 13.705332 16.19147542-.686529 8.25577538-7.9357 14.39186148-16.191475 13.70533188-4.511894-.3751977-9.055575-.5639058-13.62384-.5639058-89.7368117 0-162.5 72.968155-162.5 163s72.7631883 163 162.5 163c89.736812 0 162.5-72.968155 162.5-163 0-3.94369-.139347-7.869143-.416635-11.771752l-.127279-1.671134c-.671143-8.25704 5.478442-15.494763 13.735483-16.165906 8.25704-.671143 15.494763 5.478443 16.165905 13.735483.427605 5.260804.642526 10.554865.642526 15.873309 0 106.581526-86.175726 193-192.5 193-106.3242745 0-192.5-86.418474-192.5-193s86.1757255-193 192.5-193z"/>
    <g transform="matrix(.70710678 .70710678 -.70710678 .70710678 197.173031 98.896759)">
      <rect height="29.666667" rx="14.833333" width="71.032431" y="69.222222"/>
      <rect height="98.888889" rx="14.798423" width="29.596846" x="43.408708"/>
    </g>
    <path d="m337.423192 6c-11.790505 0-24.590795 5.8496676-30.923192 17.55-6.332098-11.7003324-19.132688-17.55-30.923192-17.55-20.628821 0-36.076808 14.3717216-36.076808 38.4833608 0 10.3997045 3.757384 23.9065568 12.240362 35.118946 8.482379 11.213054 13.528317 17.184375 29.956477 29.2500002 16.428161 12.06629 24.803161 14.147693 24.803161 14.147693s8.375-2.081403 24.803161-14.147693c16.427861-12.0656252 21.474098-18.0369462 29.956477-29.2500002 8.482978-11.2123892 12.240362-24.7192415 12.240362-35.118946 0-24.1116392-15.447987-38.4833608-36.076808-38.4833608z"/>
  </g>
</svg>
