<?xml version="1.0"?><svg fill="#000000" xmlns="http://www.w3.org/2000/svg" viewBox="0 0 30 30" width="300px" height="300px">    <path d="M 8.828125 5 C 8.298125 5 7.7890625 5.2109375 7.4140625 5.5859375 L 2 11 L 7 11 L 9.3105469 7.5332031 L 10.158203 9.1679688 A 1.5 1.5 0 0 0 10.173828 9.1953125 L 10.197266 9.2421875 L 10.199219 9.2402344 A 1.5 1.5 0 0 0 11.5 10 A 1.5 1.5 0 0 0 13 8.5 A 1.5 1.5 0 0 0 12.751953 7.6757812 L 12.753906 7.6757812 L 11.591797 5.9042969 C 11.221797 5.3402969 10.593922 5 9.9199219 5 L 8.828125 5 z M 20.080078 5 C 19.406078 5 18.778203 5.3402969 18.408203 5.9042969 L 17.246094 7.6757812 A 1.5 1.5 0 0 0 17 8.5 A 1.5 1.5 0 0 0 18.5 10 A 1.5 1.5 0 0 0 19.833984 9.1816406 L 20.689453 7.5332031 L 23 11 L 28 11 L 22.585938 5.5859375 C 22.210938 5.2109375 21.701875 5 21.171875 5 L 20.080078 5 z M 2 13 C 1.448 13 1 13.448 1 14 L 1 24 C 1 24.552 1.448 25 2 25 L 10.867188 25 C 11.570187 25 12.221031 24.631297 12.582031 24.029297 L 13.210938 22.984375 C 14.021937 21.632375 15.981969 21.632375 16.792969 22.984375 L 17.419922 24.029297 C 17.779922 24.631297 18.430813 25 19.132812 25 L 28 25 C 28.552 25 29 24.552 29 24 L 29 14 C 29 13.448 28.552 13 28 13 L 17 13 L 16.671875 13.328125 C 15.748875 14.251125 14.251125 14.251125 13.328125 13.328125 L 13 13 L 2 13 z M 3 15 L 11 15 L 13 16 L 10 23 L 3 23 L 3 15 z M 19 15 L 27 15 L 27 23 L 20 23 L 17 16 L 19 15 z"/></svg>