<svg fill="#000000" xmlns="http://www.w3.org/2000/svg" viewBox="0 0 30 30" width="300px" height="300px"><path d="M 15 3 C 8.3844276 3 3 8.3844276 3 15 C 3 21.615572 8.3844276 27 15 27 C 21.615572 27 27 21.615572 27 15 C 27 8.3844276 21.615572 3 15 3 z M 18.636719 5.6894531 C 22.363598 7.1414239 25 10.751016 25 15 C 25 15.324121 24.98307 15.64288 24.953125 15.958984 C 23.521531 14.058498 21.406318 13.095542 19.964844 12.638672 C 19.978844 12.758672 20 12.876 20 13 C 20 14.193 19.297063 15.214266 18.289062 15.697266 C 19.43538 17.56978 20.555074 20.837749 21.029297 22.972656 C 19.353307 24.240774 17.270142 25 15 25 C 13.680397 25 12.425434 24.738987 11.273438 24.277344 C 12.922856 22.022631 15.242279 18.174342 16.035156 15.826172 C 14.854156 15.422172 14 14.317 14 13 C 14 12.843 14.023875 12.690063 14.046875 12.539062 C 10.607303 13.162323 7.5264395 14.88724 5.3007812 17.396484 C 5.1123272 16.627816 5 15.827889 5 15 C 5 10.929938 7.4194566 7.4458294 10.898438 5.8828125 C 12.239819 6.9044379 14.106813 8.9910415 15.154297 10.650391 C 15.665297 10.249391 16.301 10 17 10 C 17.395 10 17.771187 10.081703 18.117188 10.220703 C 18.394452 8.9733984 18.690307 7.1699074 18.636719 5.6894531 z"/></svg>