<?xml version="1.0"?><svg fill="#000000" xmlns="http://www.w3.org/2000/svg" viewBox="0 0 30 30" width="300px" height="300px">    <path d="M 15 1.8007812 C 14.448 1.8007812 14 2.2487813 14 2.8007812 L 14 4.0429688 C 7.9324733 4.4634351 3 8.6596417 3 14 L 3 14.382812 L 3.2539062 14.666016 C 3.2539062 14.666016 4.2916817 16 6 16 C 6.8863108 16 7.5672227 15.653923 8.0410156 15.308594 C 8.560015 15.652994 9.295055 16 10.25 16 C 11.2715 16 12.003106 15.6249 12.519531 15.261719 C 12.89261 15.506397 13.38684 15.743671 14 15.880859 L 14 23.017578 C 8.4012515 23.110764 4 23.957307 4 25 C 4 26.105 8.925 27 15 27 C 21.075 27 26 26.105 26 25 C 26 24.085 22.615 23.314172 18 23.076172 L 18 24 C 18 24.552 17.552 25 17 25 C 16.448 25 16 24.552 16 24 L 16 23.009766 L 16 15.880859 C 16.61316 15.743671 17.10739 15.506397 17.480469 15.261719 C 17.996894 15.6249 18.7285 16 19.75 16 C 20.704945 16 21.439985 15.652994 21.958984 15.308594 C 22.432777 15.653923 23.113689 16 24 16 C 25.708318 16 26.746094 14.666016 26.746094 14.666016 L 27 14.382812 L 27 14 C 27 8.6596417 22.067527 4.4634351 16 4.0429688 L 16 2.8007812 C 16 2.2487813 15.552 1.8007812 15 1.8007812 z M 14.089844 6.1523438 C 13.41497 7.8549358 12.603443 10.321065 12.503906 12.556641 L 11.78125 13.304688 C 11.78125 13.304688 11.016193 14 10.25 14 C 9.4838067 14 8.71875 13.304687 8.71875 13.304688 L 8.484375 13.060547 C 8.484863 13.045902 8.4902344 13.032299 8.4902344 13.017578 C 8.4902344 7.9700061 12.308955 6.5456797 14.089844 6.1523438 z M 15.914062 6.1523438 C 17.697992 6.5476859 21.509766 7.9760073 21.509766 13.017578 C 21.509766 13.032299 21.515137 13.045902 21.515625 13.060547 L 21.28125 13.304688 C 21.28125 13.304688 20.516193 14 19.75 14 C 18.983807 14 18.21875 13.304687 18.21875 13.304688 L 17.496094 12.556641 C 17.397145 10.312851 16.588675 7.8514724 15.914062 6.1523438 z"/></svg>