<?xml version="1.0"?><svg fill="#000000" xmlns="http://www.w3.org/2000/svg" viewBox="0 0 30 30" width="300px" height="300px">    <path d="M 5 4 C 3.895 4 3 4.895 3 6 L 3 13 L 5 13 L 5 11 C 5 10.448 5.448 10 6 10 L 13 10 C 13.552 10 14 10.448 14 11 L 14 13 L 16 13 L 16 11 C 16 10.448 16.448 10 17 10 L 24 10 C 24.552 10 25 10.448 25 11 L 25 13 L 27 13 L 27 6 C 27 4.895 26.105 4 25 4 L 5 4 z M 1.984375 13.986328 A 1.0001 1.0001 0 0 0 1 15 L 1 26 A 1.0001 1.0001 0 1 0 3 26 L 3 25 L 27 25 L 27 26 A 1.0001 1.0001 0 1 0 29 26 L 29 15 A 1.0001 1.0001 0 0 0 27.984375 13.986328 A 1.0001 1.0001 0 0 0 27 15 L 3 15 A 1.0001 1.0001 0 0 0 1.984375 13.986328 z"/></svg>