<?xml version="1.0" encoding="UTF-8"?>
<svg viewBox="0 0 128 128" version="1.1" xmlns="http://www.w3.org/2000/svg" xmlns:xlink="http://www.w3.org/1999/xlink">
    <title>bell</title>
    <g id="Page-1" stroke="none" stroke-width="1" fill="none" fill-rule="evenodd">
        <path d="M117.375,100.1875 C118.583333,98.8958333 119.1875,97.2708333 119.1875,95.3125 C119.1875,92.7708333 118.197917,90.34375 116.21875,88.03125 C114.239583,85.71875 112.125,83.5 109.875,81.375 C108.666667,80 107.635417,78.59375 106.78125,77.15625 C105.927083,75.71875 105.229167,74.1875 104.6875,72.5625 C104.145833,70.9375 103.729167,69.1666667 103.4375,67.25 C103.145833,65.3333333 102.9375,63.2291667 102.8125,60.9375 C102.5625,48.7708333 100.677083,38.90625 97.15625,31.34375 C93.6354167,23.78125 87.9375,18.6041667 80.0625,15.8125 C79.0208333,11.8958333 76.96875,8.61458333 73.90625,5.96875 C70.84375,3.32291667 67.125,2 62.75,2 C58.375,2 54.6458333,3.32291667 51.5625,5.96875 C48.4791667,8.61458333 46.4166667,11.8958333 45.375,15.8125 C43.7916667,16.3541667 42.3229167,17 40.96875,17.75 C39.6145833,18.5 38.3541667,19.3125 37.1875,20.1875 L44.8125,27.9375 C45.8125,27.1875 46.8645833,26.5625 47.96875,26.0625 C49.0729167,25.5625 50.2291667,25.1458333 51.4375,24.8125 C52.1041667,24.6458333 52.6458333,24.3645833 53.0625,23.96875 C53.4791667,23.5729167 53.7083333,22.9791667 53.75,22.1875 C53.875,19.1458333 54.7291667,16.6875 56.3125,14.8125 C57.8958333,12.9375 60.0416667,12 62.75,12 C65.4166667,12 67.5520833,12.9375 69.15625,14.8125 C70.7604167,16.6875 71.6041667,19.1458333 71.6875,22.1875 C71.7708333,22.9791667 72.0104167,23.5729167 72.40625,23.96875 C72.8020833,24.3645833 73.3541667,24.6458333 74.0625,24.8125 C77.3541667,25.7291667 80.34375,27.4270833 83.03125,29.90625 C85.71875,32.3854167 87.8645833,36.1458333 89.46875,41.1875 C91.0729167,46.2291667 91.9583333,53.0416667 92.125,61.625 C92.25,63.9583333 92.4166667,66.0520833 92.625,67.90625 C92.8333333,69.7604167 93.125,71.4375 93.5,72.9375 C93.875,74.4375 94.375,75.8958333 95,77.3125 L117.375,100.1875 Z M118,122.4375 C119.291667,122.4375 120.375,122 121.25,121.125 C122.166667,120.208333 122.625,119.114583 122.625,117.84375 C122.625,116.572917 122.166667,115.479167 121.25,114.5625 L14.4375,7.75 C13.5208333,6.83333333 12.4166667,6.375 11.125,6.375 C9.83333333,6.375 8.72916667,6.83333333 7.8125,7.75 C6.9375,8.625 6.5,9.71875 6.5,11.03125 C6.5,12.34375 6.9375,13.4583333 7.8125,14.375 L114.75,121.125 C115.625,122 116.708333,122.4375 118,122.4375 Z M62.75,125.125 C66.8333333,125.125 70.4895833,124.229167 73.71875,122.4375 C76.9479167,120.645833 79.5625,118.239583 81.5625,115.21875 C83.5625,112.197917 84.7708333,108.895833 85.1875,105.3125 L88.625,105.3125 L76.9375,93.625 L19.0625,93.625 L19.0625,92.875 C19.5208333,92.3333333 20.1770833,91.625 21.03125,90.75 C21.8854167,89.875 22.8229167,88.90625 23.84375,87.84375 C24.8645833,86.78125 25.875,85.6666667 26.875,84.5 C27.875,83.3333333 28.75,82 29.5,80.5 C30.25,79 30.8854167,77.2916667 31.40625,75.375 C31.9270833,73.4583333 32.3541667,71.3229167 32.6875,68.96875 C33.0208333,66.6145833 33.25,64.0416667 33.375,61.25 C33.4583333,59.3333333 33.5625,57.5104167 33.6875,55.78125 C33.8125,54.0520833 34,52.4166667 34.25,50.875 L24.8125,41.4375 C24.2291667,44.0208333 23.78125,46.7916667 23.46875,49.75 C23.15625,52.7083333 22.9375,55.8333333 22.8125,59.125 C22.6458333,61.6666667 22.375,64.2083333 22,66.75 C21.625,69.2916667 21.0625,71.6458333 20.3125,73.8125 C19.5625,75.9791667 18.5,77.7291667 17.125,79.0625 C14.5,81.6875 11.9895833,84.3645833 9.59375,87.09375 C7.19791667,89.8229167 6,92.7291667 6,95.8125 C6,98.1875 6.84375,100.09375 8.53125,101.53125 C10.21875,102.96875 12.5416667,103.6875 15.5,103.6875 L40.125,103.6875 C40.2916667,107.4375 41.34375,110.947917 43.28125,114.21875 C45.21875,117.489583 47.8541667,120.125 51.1875,122.125 C54.5208333,124.125 58.375,125.125 62.75,125.125 Z M62.75,116.1875 C59.2916667,116.1875 56.4375,115.0625 54.1875,112.8125 C51.9375,110.5625 50.6875,107.520833 50.4375,103.6875 L75,103.6875 C74.7916667,107.520833 73.5520833,110.5625 71.28125,112.8125 C69.0104167,115.0625 66.1666667,116.1875 62.75,116.1875 Z" id="bell" fill="#000000" fill-rule="nonzero"></path>
    </g>
</svg>
