<?xml version="1.0" encoding="UTF-8"?>
<svg viewBox="0 0 128 128" version="1.1" xmlns="http://www.w3.org/2000/svg" xmlns:xlink="http://www.w3.org/1999/xlink">
    <title>bell</title>
    <g id="Page-1" stroke="none" stroke-width="1" fill="none" fill-rule="evenodd">
        <path d="M64.75,126.125 C69.0833333,126.125 72.9270833,125.125 76.28125,123.125 C79.6354167,121.125 82.2916667,118.479167 84.25,115.1875 C86.1193182,112.045455 87.1534091,108.67562 87.3522727,105.077996 L87.3685,104.6875 L112,104.6875 C114.916667,104.6875 117.21875,103.96875 118.90625,102.53125 C120.59375,101.09375 121.4375,99.1875 121.4375,96.8125 C121.4375,93.7291667 120.239583,90.8229167 117.84375,88.09375 C115.447917,85.3645833 112.9375,82.6875 110.3125,80.0625 C108.9375,78.7291667 107.875,76.9791667 107.125,74.8125 C106.375,72.6458333 105.8125,70.2916667 105.4375,67.75 C105.0625,65.2083333 104.791667,62.6666667 104.625,60.125 C104.375,52.5833333 103.46875,45.8958333 101.90625,40.0625 C100.34375,34.2291667 97.9479167,29.3645833 94.71875,25.46875 C91.4895833,21.5729167 87.2708333,18.6875 82.0625,16.8125 C81.0208333,12.8958333 78.96875,9.61458333 75.90625,6.96875 C72.84375,4.32291667 69.125,3 64.75,3 C60.3333333,3 56.59375,4.32291667 53.53125,6.96875 C50.46875,9.61458333 48.4166667,12.8958333 47.375,16.8125 C42.1666667,18.6875 37.9479167,21.5729167 34.71875,25.46875 C31.4895833,29.3645833 29.0833333,34.2291667 27.5,40.0625 C25.9166667,45.8958333 25.0208333,52.5833333 24.8125,60.125 C24.6041667,62.6666667 24.3229167,65.2083333 23.96875,67.75 C23.6145833,70.2916667 23.0625,72.6458333 22.3125,74.8125 C21.5625,76.9791667 20.5,78.7291667 19.125,80.0625 C16.5,82.6875 13.9895833,85.3645833 11.59375,88.09375 C9.19791667,90.8229167 8,93.7291667 8,96.8125 C8,99.1875 8.84375,101.09375 10.53125,102.53125 C12.21875,103.96875 14.5208333,104.6875 17.4375,104.6875 L42.0695,104.6875 L42.09078,105.077931 C42.3276085,108.674651 43.3806818,112.034091 45.25,115.15625 C47.2083333,118.427083 49.8541667,121.072917 53.1875,123.09375 C56.5208333,125.114583 60.375,126.125 64.75,126.125 Z M108.3125,94.625 L21,94.625 L21,93.875 C21.5,93.3333333 22.1666667,92.625 23,91.75 C23.8333333,90.875 24.7708333,89.90625 25.8125,88.84375 C26.8541667,87.78125 27.8541667,86.6666667 28.8125,85.5 C29.8541667,84.2916667 30.7708333,82.8958333 31.5625,81.3125 C32.3541667,79.7291667 33.0104167,77.9270833 33.53125,75.90625 C34.0520833,73.8854167 34.46875,71.65625 34.78125,69.21875 C35.09375,66.78125 35.3333333,64.1458333 35.5,61.3125 C35.6666667,53.0625 36.5625,46.5104167 38.1875,41.65625 C39.8125,36.8020833 41.9270833,33.1770833 44.53125,30.78125 C47.1354167,28.3854167 50.0833333,26.7291667 53.375,25.8125 C54.0833333,25.6458333 54.6354167,25.3645833 55.03125,24.96875 C55.4270833,24.5729167 55.6666667,23.9791667 55.75,23.1875 C55.875,20.1458333 56.7291667,17.6875 58.3125,15.8125 C59.8958333,13.9375 62.0416667,13 64.75,13 C67.4166667,13 69.5416667,13.9375 71.125,15.8125 C72.7083333,17.6875 73.5625,20.1458333 73.6875,23.1875 C73.7708333,23.9791667 74.0104167,24.5729167 74.40625,24.96875 C74.8020833,25.3645833 75.3541667,25.6458333 76.0625,25.8125 C79.3541667,26.7291667 82.3020833,28.3854167 84.90625,30.78125 C87.5104167,33.1770833 89.6145833,36.8020833 91.21875,41.65625 C92.8229167,46.5104167 93.75,53.0625 94,61.3125 C94.0833333,64.1458333 94.2916667,66.78125 94.625,69.21875 C94.9583333,71.65625 95.3958333,73.8854167 95.9375,75.90625 C96.4791667,77.9270833 97.1354167,79.7291667 97.90625,81.3125 C98.6770833,82.8958333 99.5625,84.2916667 100.5625,85.5 C101.5625,86.6666667 102.583333,87.78125 103.625,88.84375 C104.666667,89.90625 105.59375,90.875 106.40625,91.75 C107.21875,92.625 107.854167,93.3333333 108.3125,93.875 L108.3125,94.625 Z M64.75,117.1875 C61.25,117.1875 58.375,116.052083 56.125,113.78125 C53.9583333,111.594522 52.738283,108.664023 52.4648491,104.989755 L52.4455,104.6875 L76.9915,104.6875 L76.9726509,104.989755 C76.699217,108.664023 75.4791667,111.594522 73.3125,113.78125 C71.0625,116.052083 68.2083333,117.1875 64.75,117.1875 Z" id="bell" fill="#000000" fill-rule="nonzero"></path>
    </g>
</svg>
