<?xml version="1.0" encoding="UTF-8"?>
<svg viewBox="0 0 128 128" version="1.1" xmlns="http://www.w3.org/2000/svg" xmlns:xlink="http://www.w3.org/1999/xlink">
    <title>bell</title>
    <g id="Page-1" stroke="none" stroke-width="1" fill="none" fill-rule="evenodd">
        <path d="M111.5625,103.25 C114.479167,103.25 116.770833,102.541667 118.4375,101.125 C120.104167,99.7083333 120.9375,97.8125 120.9375,95.4375 C120.9375,92.3958333 119.75,89.5104167 117.375,86.78125 C115,84.0520833 112.5,81.3958333 109.875,78.8125 C108.541667,77.4791667 107.5,75.71875 106.75,73.53125 C106,71.34375 105.4375,68.9791667 105.0625,66.4375 C104.6875,63.8958333 104.395833,61.3958333 104.1875,58.9375 C103.979167,51.5625 103.09375,44.9791667 101.53125,39.1875 C99.96875,33.3958333 97.5833333,28.5104167 94.375,24.53125 C91.1666667,20.5520833 86.9791667,17.6458333 81.8125,15.8125 C80.6458333,11.9375 78.5625,8.66666667 75.5625,6 C72.5625,3.33333333 68.875,2 64.5,2 C60.125,2 56.4270833,3.33333333 53.40625,6 C50.3854167,8.66666667 48.2916667,11.9375 47.125,15.8125 C41.9583333,17.6458333 37.7708333,20.5520833 34.5625,24.53125 C31.3541667,28.5104167 28.96875,33.3958333 27.40625,39.1875 C25.84375,44.9791667 24.9583333,51.5625 24.75,58.9375 C24.5,61.3958333 24.1979167,63.8958333 23.84375,66.4375 C23.4895833,68.9791667 22.9375,71.34375 22.1875,73.53125 C21.4375,75.71875 20.3958333,77.4791667 19.0625,78.8125 C16.4375,81.3958333 13.9375,84.0520833 11.5625,86.78125 C9.1875,89.5104167 8,92.3958333 8,95.4375 C8,97.8125 8.83333333,99.7083333 10.5,101.125 C12.1666667,102.541667 14.4583333,103.25 17.375,103.25 L111.5625,103.25 Z M64.5,127.25 C67.875,127.25 70.9166667,126.520833 73.625,125.0625 C76.3333333,123.604167 78.5104167,121.666667 80.15625,119.25 C81.8020833,116.833333 82.75,114.229167 83,111.4375 L45.9375,111.4375 C46.1875,114.229167 47.1354167,116.833333 48.78125,119.25 C50.4270833,121.666667 52.6041667,123.604167 55.3125,125.0625 C58.0208333,126.520833 61.0833333,127.25 64.5,127.25 Z" id="bell-fill" fill="#000000" fill-rule="nonzero"></path>
    </g>
</svg>
