<?xml version="1.0" encoding="UTF-8"?>
<svg viewBox="0 0 128 128" version="1.1" xmlns="http://www.w3.org/2000/svg" xmlns:xlink="http://www.w3.org/1999/xlink">
    <title>bell</title>
    <g id="Page-1" stroke="none" stroke-width="1" fill="none" fill-rule="evenodd">
        <path d="M117.125,99.375 C118.375,98.125 119,96.4791667 119,94.4375 C119,91.3958333 117.802083,88.5104167 115.40625,85.78125 C113.010417,83.0520833 110.520833,80.3958333 107.9375,77.8125 C106.5625,76.4791667 105.5,74.71875 104.75,72.53125 C104,70.34375 103.447917,67.9791667 103.09375,65.4375 C102.739583,62.8958333 102.458333,60.3958333 102.25,57.9375 C102.041667,50.5625 101.15625,43.9791667 99.59375,38.1875 C98.03125,32.3958333 95.6354167,27.5104167 92.40625,23.53125 C89.1770833,19.5520833 85,16.6458333 79.875,14.8125 C78.7083333,10.9375 76.6145833,7.66666667 73.59375,5 C70.5729167,2.33333333 66.875,1 62.5,1 C58.1666667,1 54.4791667,2.33333333 51.4375,5 C48.3958333,7.66666667 46.2916667,10.9375 45.125,14.8125 C43.625,15.3541667 42.1979167,15.9895833 40.84375,16.71875 C39.4895833,17.4479167 38.2291667,18.2708333 37.0625,19.1875 L117.125,99.375 Z M117.875,121.4375 C119.166667,121.4375 120.25,121 121.125,120.125 C122.041667,119.208333 122.5,118.114583 122.5,116.84375 C122.5,115.572917 122.041667,114.479167 121.125,113.5625 L14.3125,6.75 C13.3958333,5.83333333 12.2916667,5.375 11,5.375 C9.70833333,5.375 8.60416667,5.83333333 7.6875,6.75 C6.8125,7.625 6.375,8.71875 6.375,10.03125 C6.375,11.34375 6.8125,12.4583333 7.6875,13.375 L114.625,120.125 C115.5,121 116.583333,121.4375 117.875,121.4375 Z M86.5,102.25 L24.75,40.4375 C24.1666667,43.0208333 23.7083333,45.7708333 23.375,48.6875 C23.0416667,51.6041667 22.8333333,54.6875 22.75,57.9375 C22.5416667,60.3958333 22.25,62.8958333 21.875,65.4375 C21.5,67.9791667 20.9479167,70.34375 20.21875,72.53125 C19.4895833,74.71875 18.4375,76.4791667 17.0625,77.8125 C14.4375,80.3958333 11.9375,83.0520833 9.5625,85.78125 C7.1875,88.5104167 6,91.3958333 6,94.4375 C6,96.8125 6.84375,98.7083333 8.53125,100.125 C10.21875,101.541667 12.5208333,102.25 15.4375,102.25 L86.5,102.25 Z M62.5,126.25 C65.9583333,126.25 69.03125,125.520833 71.71875,124.0625 C74.40625,122.604167 76.5625,120.666667 78.1875,118.25 C79.8125,115.833333 80.7708333,113.229167 81.0625,110.4375 L43.9375,110.4375 C44.1875,113.229167 45.1458333,115.833333 46.8125,118.25 C48.4791667,120.666667 50.65625,122.604167 53.34375,124.0625 C56.03125,125.520833 59.0833333,126.25 62.5,126.25 Z" id="bell" fill="#000000" fill-rule="nonzero"></path>
    </g>
</svg>
