<?xml version="1.0"?><svg fill="#000000" xmlns="http://www.w3.org/2000/svg" viewBox="0 0 30 30">    <path d="M 25.943359 3.0117188 C 25.499594 2.9482031 25.041328 3.1320781 24.767578 3.5175781 L 20.380859 9.6914062 L 19.148438 9.0019531 C 18.290437 8.5219531 17.212547 8.7054062 16.560547 9.4414062 L 15.388672 10.765625 L 25.226562 16.326172 L 25.761719 14.597656 C 26.054719 13.653656 25.646203 12.634344 24.783203 12.152344 L 23.875 11.644531 L 26.896484 4.7226562 C 27.148484 4.1446562 26.924 3.4701563 26.375 3.1601562 C 26.238 3.0824063 26.091281 3.0328906 25.943359 3.0117188 z M 4 7 A 1 1 0 0 0 3 8 A 1 1 0 0 0 4 9 A 1 1 0 0 0 5 8 A 1 1 0 0 0 4 7 z M 6 10 A 2 2 0 0 0 4 12 A 2 2 0 0 0 6 14 A 2 2 0 0 0 8 12 A 2 2 0 0 0 6 10 z M 14.011719 12.525391 C 9.0667187 17.561391 3 17.757812 3 17.757812 L 7.9042969 20.724609 C 7.9042969 20.724609 10.212172 20.966234 11.326172 20.740234 C 10.277172 21.451234 9.6210938 21.810547 9.6210938 21.810547 L 12.285156 23.441406 C 12.285156 23.441406 15.139453 23.308547 18.689453 21.185547 C 17.992453 22.711547 15.554688 25.244141 15.554688 25.244141 L 19.349609 27 C 19.349609 27 22.475703 24.734281 24.595703 18.488281 L 14.011719 12.525391 z"/></svg>
