<?xml version="1.0" encoding="UTF-8"?>
<svg viewBox="0 0 30 30" version="1.1" xmlns="http://www.w3.org/2000/svg" xmlns:xlink="http://www.w3.org/1999/xlink">
    <!-- Generator: Sketch 61.2 (89653) - https://sketch.com -->
    <title>Slice</title>
    <desc>Created with Sketch.</desc>
    <g id="Page-1" stroke="none" stroke-width="1" fill="none" fill-rule="evenodd">
        <path d="M24.7262357,28 C27.6778924,28 29.1466594,26.531233 29.1466594,23.6219446 L29.1466594,6.3780554 C29.1466594,3.46876697 27.6778924,2 24.7262357,2 L5.43454644,2 C2.48288973,2 1,3.45464422 1,6.3780554 L1,23.6219446 C1,26.5453558 2.48288973,28 5.43454644,28 L24.7262357,28 Z M24.9098316,25.7262357 L5.22270505,25.7262357 C3.96577947,25.7262357 3.27376426,25.0624661 3.27376426,23.7490494 L3.27376426,10.4312873 C3.27376426,9.13199348 3.96577947,8.45410103 5.22270505,8.45410103 L24.9098316,8.45410103 C26.1667572,8.45410103 26.8728952,9.13199348 26.8728952,10.4312873 L26.8728952,23.7490494 C26.8728952,25.0624661 26.1667572,25.7262357 24.9098316,25.7262357 Z M13.1455731,13.5241716 C13.6398696,13.5241716 13.8093427,13.3829441 13.8093427,12.8886475 L13.8093427,12.0554047 C13.8093427,11.5611081 13.6398696,11.4057577 13.1455731,11.4057577 L12.3123303,11.4057577 C11.8180337,11.4057577 11.6485606,11.5611081 11.6485606,12.0554047 L11.6485606,12.8886475 C11.6485606,13.3829441 11.8180337,13.5241716 12.3123303,13.5241716 L13.1455731,13.5241716 Z M17.8343292,13.5241716 C18.3286257,13.5241716 18.4980989,13.3829441 18.4980989,12.8886475 L18.4980989,12.0554047 C18.4980989,11.5611081 18.3286257,11.4057577 17.8343292,11.4057577 L17.0152091,11.4057577 C16.5067898,11.4057577 16.3514394,11.5611081 16.3514394,12.0554047 L16.3514394,12.8886475 C16.3514394,13.3829441 16.5067898,13.5241716 17.0152091,13.5241716 L17.8343292,13.5241716 Z M22.537208,13.5241716 C23.0315046,13.5241716 23.186855,13.3829441 23.186855,12.8886475 L23.186855,12.0554047 C23.186855,11.5611081 23.0315046,11.4057577 22.537208,11.4057577 L21.7039652,11.4057577 C21.2096687,11.4057577 21.0401955,11.5611081 21.0401955,12.0554047 L21.0401955,12.8886475 C21.0401955,13.3829441 21.2096687,13.5241716 21.7039652,13.5241716 L22.537208,13.5241716 Z M8.45681695,18.142314 C8.95111353,18.142314 9.10646388,18.0010864 9.10646388,17.5067898 L9.10646388,16.673547 C9.10646388,16.1792504 8.95111353,16.0380228 8.45681695,16.0380228 L7.62357414,16.0380228 C7.12927757,16.0380228 6.95980445,16.1792504 6.95980445,16.673547 L6.95980445,17.5067898 C6.95980445,18.0010864 7.12927757,18.142314 7.62357414,18.142314 L8.45681695,18.142314 Z M13.1455731,18.142314 C13.6398696,18.142314 13.8093427,18.0010864 13.8093427,17.5067898 L13.8093427,16.673547 C13.8093427,16.1792504 13.6398696,16.0380228 13.1455731,16.0380228 L12.3123303,16.0380228 C11.8180337,16.0380228 11.6485606,16.1792504 11.6485606,16.673547 L11.6485606,17.5067898 C11.6485606,18.0010864 11.8180337,18.142314 12.3123303,18.142314 L13.1455731,18.142314 Z M17.8343292,18.142314 C18.3286257,18.142314 18.4980989,18.0010864 18.4980989,17.5067898 L18.4980989,16.673547 C18.4980989,16.1792504 18.3286257,16.0380228 17.8343292,16.0380228 L17.0152091,16.0380228 C16.5067898,16.0380228 16.3514394,16.1792504 16.3514394,16.673547 L16.3514394,17.5067898 C16.3514394,18.0010864 16.5067898,18.142314 17.0152091,18.142314 L17.8343292,18.142314 Z M22.537208,18.142314 C23.0315046,18.142314 23.186855,18.0010864 23.186855,17.5067898 L23.186855,16.673547 C23.186855,16.1792504 23.0315046,16.0380228 22.537208,16.0380228 L21.7039652,16.0380228 C21.2096687,16.0380228 21.0401955,16.1792504 21.0401955,16.673547 L21.0401955,17.5067898 C21.0401955,18.0010864 21.2096687,18.142314 21.7039652,18.142314 L22.537208,18.142314 Z M8.45681695,22.774579 C8.95111353,22.774579 9.10646388,22.6192287 9.10646388,22.1249321 L9.10646388,21.2916893 C9.10646388,20.7973927 8.95111353,20.6561651 8.45681695,20.6561651 L7.62357414,20.6561651 C7.12927757,20.6561651 6.95980445,20.7973927 6.95980445,21.2916893 L6.95980445,22.1249321 C6.95980445,22.6192287 7.12927757,22.774579 7.62357414,22.774579 L8.45681695,22.774579 Z M13.1455731,22.774579 C13.6398696,22.774579 13.8093427,22.6192287 13.8093427,22.1249321 L13.8093427,21.2916893 C13.8093427,20.7973927 13.6398696,20.6561651 13.1455731,20.6561651 L12.3123303,20.6561651 C11.8180337,20.6561651 11.6485606,20.7973927 11.6485606,21.2916893 L11.6485606,22.1249321 C11.6485606,22.6192287 11.8180337,22.774579 12.3123303,22.774579 L13.1455731,22.774579 Z M17.8343292,22.774579 C18.3286257,22.774579 18.4980989,22.6192287 18.4980989,22.1249321 L18.4980989,21.2916893 C18.4980989,20.7973927 18.3286257,20.6561651 17.8343292,20.6561651 L17.0152091,20.6561651 C16.5067898,20.6561651 16.3514394,20.7973927 16.3514394,21.2916893 L16.3514394,22.1249321 C16.3514394,22.6192287 16.5067898,22.774579 17.0152091,22.774579 L17.8343292,22.774579 Z" id="calendar" fill="#000000" fill-rule="nonzero"></path>
    </g>
</svg>
