<?xml version="1.0" encoding="UTF-8"?>
<svg viewBox="0 0 128 128" version="1.1" xmlns="http://www.w3.org/2000/svg" xmlns:xlink="http://www.w3.org/1999/xlink">
    <!-- Generator: Sketch 61.2 (89653) - https://sketch.com -->
    <title>Slice</title>
    <desc>Created with Sketch.</desc>
    <g id="Page-1" stroke="none" stroke-width="1" fill="none" fill-rule="evenodd">
        <path d="M64.3076923,38.1150769 C66.4577692,38.1150769 68.3920769,39.0769231 69.7416154,40.4615385 L69.7416154,40.4615385 L69.7425385,40.4615385 L87.95,58.6927692 C87.9818462,58.7241538 88.0210769,58.7945385 88.0524615,58.8263846 L88.0524615,58.8263846 L88.0769231,58.8358462 C89.4615385,60.1676154 90.1686154,62.0223077 90.1686154,64.033 C90.1686154,66.4648462 88.9766923,68.6153846 87.1630769,70 L87.1630769,70 C78.9898729,75.9647543 70.8229468,81.9365258 62.6611538,87.9153077 L62.6611538,87.9153077 L53.9004615,80.7118462 C53.0025385,80.0313077 52.1722308,79.8554615 51.6423846,80.3853077 L51.6423846,80.3853077 L51.6160769,80.4116154 C51.1796923,80.8477692 51.2623077,81.7992308 51.9423846,82.6696923 L51.9423846,82.6696923 L58.628,90.8377692 L32.126,110.267385 C30.6848462,111.215846 29.1753846,112 27.3656923,112 C23.2870769,112 20,108.694 20,104.615385 C20,103.106615 20.4615385,101.704 21.1538462,100.534923 L21.1538462,100.534923 L25.2939217,93.9250042 L25.2939217,93.9250042 L29.4336154,87.3155385 L34.0997692,91.1347692 C34.9976923,91.8153077 35.828,91.9909231 36.3578462,91.4610769 L36.3578462,91.4610769 L36.3841538,91.4347692 C36.8205385,90.9986154 36.7379231,90.0471538 36.0578462,89.1766923 L36.0578462,89.1766923 L31.6448462,83.7854615 L50.9535385,52.9565385 L59.2536154,59.7501538 C60.1515385,60.4306923 60.9818462,60.6063077 61.5116923,60.0764615 L61.5116923,60.0764615 L61.538,60.0501538 C61.9743846,59.614 61.8917692,58.6625385 61.2116923,57.7920769 L61.2116923,57.7920769 L53.6846923,48.5959231 L57.9119231,41.8461538 C59.1906154,39.5384615 61.5749231,38.1150769 64.3076923,38.1150769 Z M94.5144615,16 L100.888077,19.7121538 L89.5270769,39.3766923 L104.810923,30.5585385 L108.615385,36.9494615 L84.9580769,50.5396923 L78.3608462,43.9424615 L94.5144615,16 Z" id="Combined-Shape" fill="#000000" fill-rule="nonzero"></path>
    </g>
</svg>
