<?xml version="1.0" encoding="utf-8"?>
<svg xmlns="http://www.w3.org/2000/svg" viewBox="0 0 30 30" fill="#000000"><path d="M 15.001953 2.0019531 C 14.635453 2.0019531 14.269188 2.1796094 14.054688 2.5371094 L 13.636719 3.234375 C 13.456719 3.534375 13.159266 3.736125 12.822266 3.828125 C 12.818266 3.829125 12.8165 3.8310313 12.8125 3.8320312 C 12.4715 3.9260312 12.109781 3.8985625 11.800781 3.7265625 L 11.089844 3.3320312 C 10.360844 2.9270312 9.4632187 3.4452969 9.4492188 4.2792969 L 9.4335938 5.1015625 C 9.4275938 5.4495625 9.2733438 5.7735312 9.0273438 6.0195312 C 9.0243437 6.0215312 9.0215313 6.0243438 9.0195312 6.0273438 C 8.7735312 6.2743437 8.4495625 6.4275937 8.1015625 6.4335938 L 7.2773438 6.4472656 C 6.4433438 6.4612656 5.9250781 7.3598437 6.3300781 8.0898438 L 6.7265625 8.8027344 C 6.8965625 9.1097344 6.9250312 9.4686406 6.8320312 9.8066406 C 6.8290312 9.8126406 6.8281719 9.8182188 6.8261719 9.8242188 C 6.7351719 10.159219 6.5333281 10.453813 6.2363281 10.632812 L 5.5371094 11.052734 C 4.8221094 11.481734 4.8221094 12.518266 5.5371094 12.947266 L 6.2363281 13.367188 C 6.5343281 13.546188 6.7351719 13.840781 6.8261719 14.175781 C 6.8281719 14.181781 6.8280781 14.188313 6.8300781 14.195312 C 6.9230781 14.533312 6.8965625 14.893219 6.7265625 15.199219 L 6.3300781 15.912109 C 5.9250781 16.641109 6.4433438 17.538734 7.2773438 17.552734 L 8.0996094 17.566406 C 8.4486094 17.572406 8.7715781 17.728609 9.0175781 17.974609 L 9.0253906 17.982422 C 9.2723906 18.228422 9.4275938 18.552391 9.4335938 18.900391 L 9.4472656 19.722656 C 9.4612656 20.556656 10.358891 21.074922 11.087891 20.669922 L 11.800781 20.273438 C 12.107781 20.103437 12.466687 20.076922 12.804688 20.169922 C 12.810688 20.171922 12.818219 20.171828 12.824219 20.173828 C 13.159219 20.264828 13.453812 20.465672 13.632812 20.763672 L 14.052734 21.462891 C 14.481734 22.177891 15.518266 22.177891 15.947266 21.462891 L 16.367188 20.763672 C 16.546187 20.465672 16.840781 20.264828 17.175781 20.173828 C 17.181781 20.171828 17.187359 20.171922 17.193359 20.169922 C 17.531359 20.076922 17.891266 20.103437 18.197266 20.273438 L 18.910156 20.669922 C 19.639156 21.074922 20.538734 20.556656 20.552734 19.722656 L 20.566406 18.900391 C 20.572406 18.551391 20.726656 18.228422 20.972656 17.982422 L 20.980469 17.974609 C 21.226469 17.727609 21.550438 17.572406 21.898438 17.566406 L 22.722656 17.552734 C 23.556656 17.538734 24.074922 16.641109 23.669922 15.912109 L 23.273438 15.199219 C 23.103437 14.892219 23.074969 14.533313 23.167969 14.195312 C 23.169969 14.189312 23.171828 14.182781 23.173828 14.175781 C 23.264828 13.840781 23.465672 13.546187 23.763672 13.367188 L 24.462891 12.947266 C 25.179891 12.517266 25.179844 11.481734 24.464844 11.052734 L 23.765625 10.632812 C 23.467625 10.453812 23.266781 10.159219 23.175781 9.8242188 C 23.173781 9.8182187 23.171922 9.8136406 23.169922 9.8066406 C 23.076922 9.4686406 23.105391 9.1087344 23.275391 8.8027344 L 23.671875 8.0898438 C 24.076875 7.3608437 23.558609 6.4612656 22.724609 6.4472656 L 21.900391 6.4335938 C 21.551391 6.4275937 21.228422 6.2733437 20.982422 6.0273438 L 20.974609 6.0195312 C 20.727609 5.7735312 20.574359 5.4495625 20.568359 5.1015625 L 20.554688 4.2773438 C 20.540688 3.4433437 19.641109 2.9250781 18.912109 3.3300781 L 18.199219 3.7265625 C 17.892219 3.8965625 17.533312 3.9250313 17.195312 3.8320312 C 17.189312 3.8300313 17.184734 3.8281719 17.177734 3.8261719 C 16.842734 3.7351719 16.548141 3.5343281 16.369141 3.2363281 L 15.949219 2.5371094 C 15.734719 2.1796094 15.368453 2.0019531 15.001953 2.0019531 z M 24.171875 19.171875 C 23.743875 19.402875 23.265859 19.543734 22.755859 19.552734 L 22.554688 19.554688 L 22.552734 19.755859 C 22.524734 21.439859 21.129313 22.808594 19.445312 22.808594 C 18.922313 22.808594 18.401453 22.674969 17.939453 22.417969 L 17.765625 22.320312 L 17.662109 22.492188 C 17.641109 22.527188 17.609891 22.553891 17.587891 22.587891 L 23 28 L 23 23 L 28 23 L 24.171875 19.171875 z M 5.8261719 19.173828 L 2 23 L 7 23 L 7 28 L 12.412109 22.587891 C 12.390109 22.553891 12.358891 22.527188 12.337891 22.492188 L 12.234375 22.320312 L 12.058594 22.417969 C 11.596594 22.673969 11.076734 22.810547 10.552734 22.810547 C 8.8687344 22.810547 7.4752656 21.439859 7.4472656 19.755859 L 7.4433594 19.556641 L 7.2441406 19.552734 C 6.7351406 19.543734 6.2541719 19.404828 5.8261719 19.173828 z" fill="#000000"/></svg>
