<?xml version="1.0" encoding="UTF-8"?>
<svg width="128px" height="128px" viewBox="0 0 128 128" version="1.1" xmlns="http://www.w3.org/2000/svg" xmlns:xlink="http://www.w3.org/1999/xlink">
    <!-- Generator: Sketch 61.2 (89653) - https://sketch.com -->
    <title>Slice</title>
    <desc>Created with Sketch.</desc>
    <g id="Page-1" stroke="none" stroke-width="1" fill="none" fill-rule="evenodd">
        <path d="M63.9529412,16 C90.2117647,16 112,37.7882353 112,64 C112,90.2588235 90.2588235,112 64,112 C37.7882353,112 16,90.2588235 16,64 C16,37.7882353 37.7411765,16 63.9529412,16 Z M82.4,42.2117647 C81.1764706,42.2117647 79.9529412,42.9176471 79.1058824,44.3294118 L57.8823529,78.3529412 L46.9647059,64.2352941 C45.8823529,62.8235294 44.7529412,62.3058824 43.4823529,62.3058824 C41.4117647,62.3058824 39.7647059,64 39.7647059,66.1176471 C39.7647059,67.1529412 40.1882353,68.1411765 40.8941176,69.0352941 L54.0235294,85.3176471 C55.2941176,86.8705882 56.5176471,87.5294118 58.0705882,87.5294118 C59.6235294,87.5294118 60.8941176,86.7764706 61.8823529,85.3176471 L85.1294118,48.7529412 C85.7411765,47.8117647 86.2588235,46.7294118 86.2588235,45.6941176 C86.2588235,43.5294118 84.3764706,42.2117647 82.4,42.2117647 Z" id="CheckmarkCircleFill" fill="#000000" fill-rule="nonzero"></path>
    </g>
</svg>