<?xml version="1.0" encoding="UTF-8"?>
<svg width="128px" height="128px" viewBox="0 0 128 128" version="1.1" xmlns="http://www.w3.org/2000/svg" xmlns:xlink="http://www.w3.org/1999/xlink">
    <!-- Generator: Sketch 61.2 (89653) - https://sketch.com -->
    <title>Slice</title>
    <desc>Created with Sketch.</desc>
    <g id="Page-1" stroke="none" stroke-width="1" fill="none" fill-rule="evenodd">
        <path d="M64,128 C99.0117647,128 128,99.0117647 128,64 C128,29.0509804 98.9490196,0 63.9372549,0 C28.9882353,0 0,29.0509804 0,64 C0,99.0117647 29.0509804,128 64,128 Z M55.4039216,96.1882353 C53.2705882,96.1882353 51.5764706,95.2470588 49.8196078,93.1137255 L31.6862745,70.7764706 C30.745098,69.5843137 30.1803922,68.0784314 30.1803922,66.6980392 C30.1803922,63.7490196 32.5019608,61.4901961 35.3254902,61.4901961 C37.0823529,61.4901961 38.6509804,62.1803922 40.0941176,64.1254902 L55.0901961,83.5137255 L84.2666667,36.7686275 C85.4588235,34.8235294 87.0901961,33.8823529 88.7843137,33.8823529 C91.545098,33.8823529 94.1803922,35.7019608 94.1803922,38.7137255 C94.1803922,40.0941176 93.3647059,41.6 92.6117647,42.854902 L60.6745098,93.1137255 C59.2941176,95.1843137 57.5372549,96.1882353 55.4039216,96.1882353 Z" id="checkmarkfill" fill="#000000" fill-rule="nonzero"></path>
    </g>
</svg>