<?xml version="1.0" encoding="UTF-8"?>
<svg width="300px" height="300px" viewBox="0 0 128 128" version="1.1" xmlns="http://www.w3.org/2000/svg" xmlns:xlink="http://www.w3.org/1999/xlink">
    <!-- Generator: Sketch 61.2 (89653) - https://sketch.com -->
    <title>Slice</title>
    <desc>Created with Sketch.</desc>
    <g id="Page-1" stroke="none" stroke-width="1" fill-rule="evenodd">
        <path d="M42.4396843,112 C44.2254791,112 45.686584,111.35062 46.9312289,110.16009 L89.0326945,69.0326945 C90.4937993,67.5174746 91.2514092,65.9481398 91.2514092,64 C91.2514092,62.1059752 90.5479143,60.4284104 89.0326945,59.0214205 L46.9312289,17.8399098 C45.686584,16.6493799 44.2254791,16 42.4396843,16 C38.8139797,16 36,18.8139797 36,22.3855693 C36,24.1172492 36.7576099,25.794814 37.9481398,27.0394589 L75.8827508,64.054115 L37.9481398,100.960541 C36.7034949,102.259301 36,103.828636 36,105.614431 C36,109.18602 38.8139797,112 42.4396843,112 Z" id="chevron" fill-rule="nonzero"></path>
    </g>
</svg>
