<?xml version="1.0"?><svg fill="#000000" xmlns="http://www.w3.org/2000/svg" viewBox="0 0 30 30" width="300px" height="300px">    <path d="M 6 3 C 5.447 3 5 3.447 5 4 L 5 10 C 5 14.658 8.7912656 13.999234 8.5722656 16.990234 C 8.3532656 19.981234 8 23 8 25 A 2 2 0 0 0 10 27 A 2 2 0 0 0 12 25 A 2 2 0 0 0 11.994141 24.859375 C 11.979831 22.859969 11.642134 19.918398 11.427734 16.990234 C 11.208734 13.999234 15 14.658 15 10 L 15 4 C 15 3.447 14.553 3 14 3 C 13.447 3 13 3.447 13 4 L 13 9 C 13 9.552 12.552 10 12 10 C 11.448 10 11 9.552 11 9 L 11 4 C 11 3.447 10.553 3 10 3 C 9.447 3 9 3.447 9 4 L 9 9 C 9 9.552 8.552 10 8 10 C 7.448 10 7 9.552 7 9 L 7 4 C 7 3.447 6.553 3 6 3 z M 20 3 A 1 1 0 0 0 19 4 L 19 25 A 2 2 0 0 0 21 27 A 2 2 0 0 0 23 25 A 2 2 0 0 0 22.986328 24.785156 C 22.946774 23.487591 22.545534 21.587832 22.205078 19.769531 C 21.821078 17.720531 21.905 17 23 17 C 24.095 17 25 16.105 25 15 L 25 8 C 25 5.2726057 22.8142 3.059449 20.099609 3.0058594 A 1 1 0 0 0 20 3 z"/></svg>