<?xml version="1.0" encoding="UTF-8"?>
<svg width="30px" height="30px" viewBox="0 0 30 30" version="1.1" xmlns="http://www.w3.org/2000/svg" xmlns:xlink="http://www.w3.org/1999/xlink">
    <!-- Generator: Sketch 61.2 (89653) - https://sketch.com -->
    <title>Slice</title>
    <desc>Created with Sketch.</desc>
    <g id="Page-1" stroke="none" stroke-width="1" fill="none" fill-rule="evenodd">
        <path d="M15.0163934,10.1555162 C15.5498449,10.1555162 15.9964555,9.70890563 15.9964555,9.18785999 L15.9964555,5.57775809 L15.9220204,3.71688082 L16.7532122,4.59769606 L18.6389012,6.60744351 C18.8125831,6.80593708 19.0731059,6.90518387 19.308817,6.90518387 C19.8174568,6.90518387 20.214444,6.53300842 20.214444,6.02436863 C20.214444,5.76384581 20.1027913,5.56535224 19.9167036,5.37926451 L15.7235268,1.33495791 C15.4754098,1.08684094 15.2645104,1 15.0163934,1 C14.7558706,1 14.5449712,1.08684094 14.2968542,1.33495791 L10.1036774,5.37926451 C9.91758972,5.56535224 9.80593708,5.76384581 9.80593708,6.02436863 C9.80593708,6.53300842 10.1781125,6.90518387 10.6991582,6.90518387 C10.9348693,6.90518387 11.207798,6.80593708 11.3814798,6.60744351 L13.2671688,4.59769606 L14.0983607,3.71688082 L14.0239256,5.57775809 L14.0239256,9.18785999 C14.0239256,9.70890563 14.482942,10.1555162 15.0163934,10.1555162 Z M22.1249446,29 C24.7177669,29 26.020381,27.7097918 26.020381,25.154187 L26.020381,13.0212672 C26.020381,10.4656624 24.7177669,9.17545414 22.1249446,9.17545414 L16.28179,9.17545414 L16.28179,18.3185645 C16.28179,19.0008861 15.6987151,19.5591493 15.0163934,19.5591493 C14.3216659,19.5591493 13.7385911,19.0008861 13.7385911,18.3185645 L13.7385911,9.17545414 L7.89543642,9.17545414 C5.30261409,9.17545414 4,10.4656624 4,13.0212672 L4,25.154187 C4,27.7097918 5.30261409,29 7.89543642,29 L22.1249446,29 Z" id="export" fill="#000000" fill-rule="nonzero"></path>
    </g>
</svg>