<svg fill="#000000" xmlns="http://www.w3.org/2000/svg" viewBox="0 0 30 30" width="300px" height="300px"><path d="M 6 3 C 4.3550302 3 3 4.3550302 3 6 L 3 9 A 1.0001 1.0001 0 1 0 5 9 L 5 6 C 5 5.4349698 5.4349698 5 6 5 L 9 5 A 1.0001 1.0001 0 1 0 9 3 L 6 3 z M 21 3 A 1.0001 1.0001 0 1 0 21 5 L 24 5 C 24.56503 5 25 5.4349698 25 6 L 25 9 A 1.0001 1.0001 0 1 0 27 9 L 27 6 C 27 4.3550302 25.64497 3 24 3 L 21 3 z M 9.984375 10.986328 A 1.0001 1.0001 0 0 0 9 12 L 9 14 A 1.0001 1.0001 0 1 0 11 14 L 11 12 A 1.0001 1.0001 0 0 0 9.984375 10.986328 z M 14.984375 10.986328 A 1.0001 1.0001 0 0 0 14 12 L 14 16 A 1.0001 1.0001 0 1 0 14 18 C 15.093063 18 16 17.093063 16 16 L 16 12 A 1.0001 1.0001 0 0 0 14.984375 10.986328 z M 19.984375 10.986328 A 1.0001 1.0001 0 0 0 19 12 L 19 14 A 1.0001 1.0001 0 1 0 21 14 L 21 12 A 1.0001 1.0001 0 0 0 19.984375 10.986328 z M 18 18.984375 A 1.0001 1.0001 0 0 0 17.349609 19.191406 C 16.777916 19.606881 15.983333 20 15 20 C 14.016667 20 13.222084 19.606881 12.650391 19.191406 A 1.0001 1.0001 0 0 0 12.09375 18.992188 A 1.0001 1.0001 0 0 0 11.474609 20.808594 C 12.278916 21.393119 13.483333 22 15 22 C 16.516667 22 17.721084 21.393119 18.525391 20.808594 A 1.0001 1.0001 0 0 0 18 18.984375 z M 3.984375 19.986328 A 1.0001 1.0001 0 0 0 3 21 L 3 24 C 3 25.64497 4.3550302 27 6 27 L 9 27 A 1.0001 1.0001 0 1 0 9 25 L 6 25 C 5.4349698 25 5 24.56503 5 24 L 5 21 A 1.0001 1.0001 0 0 0 3.984375 19.986328 z M 25.984375 19.986328 A 1.0001 1.0001 0 0 0 25 21 L 25 24 C 25 24.56503 24.56503 25 24 25 L 21 25 A 1.0001 1.0001 0 1 0 21 27 L 24 27 C 25.64497 27 27 25.64497 27 24 L 27 21 A 1.0001 1.0001 0 0 0 25.984375 19.986328 z"/></svg>