<?xml version="1.0"?><svg fill="#000000" xmlns="http://www.w3.org/2000/svg" viewBox="0 0 30 30" width="300px" height="300px">    <path d="M 10 3 C 8.895 3 8 3.895 8 5 C 6.343 5 5 6.343 5 8 C 5 8.09 5.0193438 8.1756719 5.0273438 8.2636719 C 4.4173437 8.6066719 4 9.251 4 10 C 4 10.238 4.049 10.463781 4.125 10.675781 C 3.444 11.225781 3 12.057 3 13 C 3 13.904 3.4080156 14.705859 4.0410156 15.255859 C 3.4230156 15.596859 3 16.245 3 17 C 3 18.105 3.895 19 5 19 C 5 20.657 6.343 22 8 22 L 9 22 L 9 26 C 9 26.552 9.448 27 10 27 C 10.552 27 11 26.552 11 26 L 11 22 C 11 21.389 11.199656 20.786422 11.597656 20.232422 L 13.052734 18.279297 C 12.408734 17.729297 12 16.912 12 16 C 12 15.287 12.255656 14.601641 12.722656 14.056641 L 14.507812 11.667969 C 14.187812 11.189969 14 10.616 14 10 C 14 9.461 14.153078 8.9363594 14.455078 8.4433594 C 14.486078 8.3923594 14.520641 8.3429219 14.556641 8.2949219 L 15.685547 6.7773438 C 15.449547 6.5883437 15.189203 6.4247813 14.908203 6.3007812 C 14.592203 4.9827812 13.415 4 12 4 C 11.91 4 11.824328 4.0193438 11.736328 4.0273438 C 11.393328 3.4173437 10.749 3 10 3 z M 20 5 C 19.647 5 19.351828 5.1937031 19.173828 5.4707031 L 19.158203 5.4609375 L 16.160156 9.4882812 C 16.067156 9.6392812 16 9.809 16 10 C 16 10.552 16.448 11 17 11 L 17.5 11 L 14.275391 15.320312 C 14.107391 15.499313 14 15.736 14 16 C 14 16.552 14.448 17 15 17 L 16.5 17 L 13.201172 21.427734 C 13.083172 21.591734 13 21.783 13 22 C 13 22.552 13.448 23 14 23 L 19 23 L 19 26 C 19 26.552 19.448 27 20 27 C 20.552 27 21 26.552 21 26 L 21 23 L 26 23 C 26.552 23 27 22.552 27 22 C 27 21.783 26.916828 21.591734 26.798828 21.427734 L 23.5 17 L 25 17 C 25.552 17 26 16.552 26 16 C 26 15.736 25.892609 15.499313 25.724609 15.320312 L 22.5 11 L 23 11 C 23.552 11 24 10.552 24 10 C 24 9.809 23.932844 9.6392812 23.839844 9.4882812 L 20.841797 5.4609375 L 20.826172 5.4707031 C 20.648172 5.1937031 20.353 5 20 5 z"/></svg>