<?xml version="1.0"?><svg fill="#000000" xmlns="http://www.w3.org/2000/svg" viewBox="0 0 30 30" width="300px" height="300px">    <path d="M27.707,7.93c-0.391-0.391-1.023-0.391-1.414,0l-3.864,3.864c-0.388,0.388-1.016,0.388-1.404,0l0,0 c-0.388-0.388-0.388-1.016,0-1.404l3.864-3.864c0.391-0.391,0.391-1.023,0-1.414s-1.023-0.391-1.414,0l-3.864,3.864 c-0.388,0.388-1.016,0.388-1.404,0l0,0c-0.388-0.388-0.388-1.016,0-1.404l3.864-3.864c0.391-0.391,0.391-1.023,0-1.414 s-1.023-0.391-1.414,0l-5.373,5.373c-3.089,3.612,0.84,4.112-2.55,7.004c-3.468,2.958-7.537,6.422-7.964,6.849 c-1.025,1.025-1.025,2.687,0,3.712c1.025,1.025,2.687,1.025,3.712,0c0.427-0.427,3.891-4.497,6.849-7.964 c2.892-3.39,3.392,0.539,7.004-2.55l5.373-5.373C28.098,8.953,28.098,8.32,27.707,7.93z"/></svg>