<?xml version="1.0"?><svg fill="#000000" xmlns="http://www.w3.org/2000/svg" viewBox="0 0 30 30" width="300px" height="300px">    <path d="M 7 2 A 3 3 0 0 0 4 5 A 3 3 0 0 0 7 8 A 3 3 0 0 0 10 5 A 3 3 0 0 0 7 2 z M 23 2 A 3 3 0 0 0 20 5 A 3 3 0 0 0 23 8 A 3 3 0 0 0 26 5 A 3 3 0 0 0 23 2 z M 26.001953 6.0019531 C 26.001953 6.0019531 25.924953 7.4210469 26.751953 8.2480469 C 27.578953 9.0750469 28.998047 8.9980469 28.998047 8.9980469 C 28.998047 8.9980469 29.075047 7.5789531 28.248047 6.7519531 C 27.421047 5.9249531 26.001953 6.0019531 26.001953 6.0019531 z M 6 10 C 4.3550302 10 3 11.35503 3 13 L 3 19 A 1.0001 1.0001 0 0 0 4 20.013672 L 4 25.966797 C 4 26.536797 4.4632031 27 5.0332031 27 C 5.5772031 27 6.0284531 26.578156 6.0644531 26.035156 L 6.5019531 19.464844 C 6.5199531 19.203844 6.737 19 7 19 C 7.263 19 7.4800469 19.204797 7.4980469 19.466797 L 7.9355469 26.035156 C 7.9715469 26.577156 8.4227969 27 8.9667969 27 C 9.5367969 27 10 26.536797 10 25.966797 L 10 20.179688 A 1.0001 1.0001 0 0 0 11.675781 20.738281 A 1.0003551 1.0003551 0 0 0 11.707031 20.707031 L 12.425781 19.990234 L 12.001953 25.929688 A 1.0005207 1.0005207 0 1 0 13.998047 26.070312 L 14.003906 25.998047 L 14.388672 23.292969 C 14.489672 22.584969 15.512281 22.584969 15.613281 23.292969 L 15.994141 25.970703 L 16.001953 26.070312 A 1.0005207 1.0005207 0 1 0 17.998047 25.929688 L 17.574219 19.988281 L 18.273438 20.6875 A 1.0003371 1.0003371 0 0 0 18.289062 20.705078 L 18.292969 20.707031 A 1.0003371 1.0003371 0 0 0 18.322266 20.736328 A 1.0001 1.0001 0 0 0 20 20.175781 L 20 21 L 20 25.966797 C 20 26.536797 20.463203 27 21.033203 27 C 21.577203 27 22.028453 26.578156 22.064453 26.035156 L 22.400391 21 L 23.599609 21 L 23.935547 26.035156 C 23.971547 26.577156 24.422797 27 24.966797 27 C 25.536797 27 26 26.536797 26 25.966797 L 26 21 L 27 21 A 1.0003371 1.0003371 0 0 0 27.976562 19.783203 L 26.408203 12.734375 C 26.21221 11.853858 25.662828 11.172959 24.941406 10.728516 C 24.45192 10.309729 23.831072 10.046876 23.144531 10.013672 A 1.0001 1.0001 0 0 0 23 10 C 21.370047 10 19.946159 11.142375 19.591797 12.734375 L 18.404297 18.068359 C 17.502374 17.383342 16.399266 17 15.253906 17 L 14.746094 17 C 13.677012 17 12.644058 17.331962 11.777344 17.933594 L 11.191406 12.667969 C 11.022878 11.157179 9.7310824 10 8.2109375 10 L 6 10 z M 15 12 A 2 2 0 0 0 13 14 A 2 2 0 0 0 15 16 A 2 2 0 0 0 17 14 A 2 2 0 0 0 15 12 z"/></svg>