<?xml version="1.0"?><svg fill="#000000" xmlns="http://www.w3.org/2000/svg" viewBox="0 0 30 30" width="300px" height="300px">    <path d="M 25.605469 2.0644531 C 25.498969 2.0644531 25.391656 2.1181094 25.285156 2.2246094 L 24.539062 2.96875 L 24.220703 2.6484375 L 23.794922 3.0742188 L 24.113281 3.3945312 L 23.6875 3.8203125 L 23.369141 3.5019531 L 22.943359 3.9277344 L 23.261719 4.2460938 L 22.517578 4.9902344 C 22.304578 5.2032344 22.304578 5.4178594 22.517578 5.6308594 L 17.472656 10.673828 C 16.601363 9.988603 15.682991 9.4805335 14.802734 9.2207031 C 13.132734 8.7287031 11.643141 9.0756562 10.494141 10.222656 C 9.9871406 10.729656 9.6641563 11.364422 9.5351562 12.107422 C 9.3261563 13.311422 8.2647188 14.245078 7.0117188 14.330078 C 5.6437187 14.422078 4.4410625 14.948562 3.5390625 15.851562 C 1.1600625 18.230563 1.6052031 22.550563 4.5332031 25.476562 C 6.1942031 27.138563 8.3029531 28 10.251953 28 C 11.735953 28 13.128203 27.499703 14.158203 26.470703 C 15.062203 25.567703 15.587687 24.366047 15.679688 22.998047 C 15.764688 21.745047 16.698344 20.683609 17.902344 20.474609 C 18.646344 20.345609 19.282062 20.021672 19.789062 19.513672 C 20.937062 18.365672 21.284016 16.877031 20.791016 15.207031 C 20.707016 14.927031 20.595891 14.642469 20.462891 14.355469 L 18.550781 16.267578 C 18.160781 16.657578 17.526719 16.657578 17.136719 16.267578 C 16.746719 15.876578 16.746719 15.243516 17.136719 14.853516 L 19.386719 12.603516 C 19.385188 12.601526 19.382396 12.59965 19.380859 12.597656 L 24.539062 7.4394531 C 24.752063 7.6524531 24.966688 7.6524531 25.179688 7.4394531 L 25.923828 6.6953125 L 26.242188 7.0136719 L 26.669922 6.5878906 L 26.349609 6.2695312 L 26.775391 5.84375 L 26.988281 6.2695312 L 27.414062 5.84375 L 27.095703 5.5234375 L 27.841797 4.7792969 C 28.054797 4.5662969 28.054797 4.353625 27.841797 4.140625 L 25.925781 2.2246094 C 25.819281 2.1181094 25.711969 2.0644531 25.605469 2.0644531 z M 13 15 C 14.105 15 15 15.895 15 17 C 15 18.105 14.105 19 13 19 C 11.895 19 11 18.105 11 17 C 11 15.895 11.895 15 13 15 z M 7.6757812 19.515625 C 7.9316562 19.515625 8.1878125 19.613094 8.3828125 19.808594 L 10.191406 21.617188 C 10.582406 22.008188 10.582406 22.64125 10.191406 23.03125 C 9.8004062 23.42225 9.1673437 23.42225 8.7773438 23.03125 L 6.96875 21.222656 C 6.57875 20.831656 6.57875 20.199594 6.96875 19.808594 C 7.16425 19.613094 7.4199063 19.515625 7.6757812 19.515625 z"/></svg>