<?xml version="1.0"?><svg fill="#000000" xmlns="http://www.w3.org/2000/svg" viewBox="0 0 30 30" width="300px" height="300px">    <path d="M24,4H6C4.895,4,4,4.895,4,6v8h0.839l0.318-0.746c0.315-0.735,1.027-1.193,1.835-1.196c0.801,0.009,1.51,0.495,1.808,1.239 l1.115,2.794l3.136-9.407c0.147-0.442,0.578-0.721,1.047-0.679c0.465,0.046,0.836,0.407,0.894,0.871l1.428,11.425l1.124-3.599 C17.675,14.284,18.062,14,18.499,14h1.778c0.346-0.595,0.984-1,1.723-1c1.104,0,2,0.896,2,2s-0.896,2-2,2 c-0.738,0-1.376-0.405-1.723-1h-1.043l-2.28,7.298C16.823,23.719,16.434,24,16,24c-0.03,0-0.06-0.001-0.089-0.004 c-0.469-0.042-0.845-0.405-0.903-0.872l-1.453-11.625l-2.606,7.817c-0.133,0.398-0.5,0.671-0.92,0.684 c-0.416-0.009-0.802-0.239-0.958-0.629l-2.128-5.332L6.42,15.393C6.263,15.761,5.9,16,5.5,16H4v8c0,1.105,0.895,2,2,2h18 c1.105,0,2-0.895,2-2V6C26,4.895,25.105,4,24,4z"/></svg>