<?xml version="1.0" encoding="UTF-8"?>
<svg viewBox="0 0 30 30" version="1.1" xmlns="http://www.w3.org/2000/svg" xmlns:xlink="http://www.w3.org/1999/xlink">
    <!-- Generator: Sketch 61.2 (89653) - https://sketch.com -->
    <title>Slice</title>
    <desc>Created with Sketch.</desc>
    <g id="Page-1" stroke="none" stroke-width="1" fill="none" fill-rule="evenodd">
        <path d="M21.9991852,28.5 C23.5097773,28.5 24.3897338,27.6787072 24.404437,26.0947854 L24.404437,25.7134709 C24.4190657,21.6656708 20.0926127,18.3804997 18.2153721,16.5912548 C17.6873982,16.0926127 17.4087452,15.6379685 17.4087452,14.9780011 C17.4087452,14.3180337 17.6727322,13.8780554 18.2153721,13.3647474 C20.0926127,11.5461706 24.404437,8.46632265 24.404437,4.25719718 L24.404437,3.90521456 C24.404437,2.32129278 23.5097773,1.5 21.9991852,1.5 L7.75855513,1.5 C6.30662683,1.5 5.5,2.32129278 5.5,3.77322108 L5.5,4.25719718 C5.5,8.46632265 9.81178707,11.5461706 11.6890277,13.3647474 C12.2316676,13.8780554 12.4956545,14.3180337 12.4956545,14.9780011 C12.4956545,15.6379685 12.2316676,16.0926127 11.6890277,16.5912548 C9.81178707,18.3804997 5.5,21.6656708 5.5,25.7134709 L5.5,26.2267789 C5.5,27.6787072 6.30662683,28.5 7.75855513,28.5 L21.9991852,28.5 Z M20.6059207,26.4907659 L9.28381315,26.4907659 C8.59451385,26.4907659 8.37452471,25.7134709 9.04915807,25.200163 L14.0795763,21.4603476 C14.2409017,21.3283542 14.3288973,21.2403585 14.3288973,21.0203694 L14.3288973,13.9660511 C14.3288973,13.1740902 14.152906,12.7781097 13.6102662,12.3087996 C12.7596415,11.6048343 11.1903857,10.4902227 10.4570885,9.47827268 C10.1637697,9.06762629 10.2077675,8.73030961 10.5744161,8.73030961 L19.3299837,8.73030961 C19.6966323,8.73030961 19.7259641,9.06762629 19.4326453,9.47827268 C18.7140141,10.4902227 17.1300923,11.6048343 16.2941336,12.3087996 C15.7221619,12.7781097 15.5755024,13.1740902 15.5755024,13.9660511 L15.5755024,21.0203694 C15.5755024,21.2403585 15.6634981,21.3283542 15.8248235,21.4603476 L20.8405758,25.200163 C21.5298751,25.7134709 21.3098859,26.4907659 20.6059207,26.4907659 Z" id="hourglass" fill="#000000" fill-rule="nonzero"></path>
    </g>
</svg>
