<?xml version="1.0" encoding="UTF-8"?>
<svg width="300px" height="300px" viewBox="0 0 30 30" version="1.1" xmlns="http://www.w3.org/2000/svg" xmlns:xlink="http://www.w3.org/1999/xlink">
    <!-- Generator: Sketch 61.2 (89653) - https://sketch.com -->
    <title>Slice</title>
    <desc>Created with Sketch.</desc>
    <g id="Page-1" stroke="none" stroke-width="1" fill="none" fill-rule="evenodd">
        <path d="M14.5164428,20.4664196 C14.7758221,20.4664196 14.9962946,20.3886058 15.2556739,20.1292265 L19.6391848,15.8883742 C19.8337193,15.6938397 19.95044,15.4863363 19.95044,15.213988 C19.95044,14.6822603 19.5354331,14.3061603 19.0037054,14.3061603 C18.757295,14.3061603 18.4849467,14.409912 18.3033812,14.6174155 L16.3320982,16.7054192 L15.4631774,17.6262158 L15.5409912,15.6808708 L15.5409912,2.01157943 C15.5409912,1.46688282 15.0741084,1 14.5164428,1 C13.9587772,1 13.4789254,1.46688282 13.4789254,2.01157943 L13.4789254,15.6808708 L13.5567392,17.6262158 L12.6878184,16.7054192 L10.7165354,14.6174155 C10.5349699,14.409912 10.2496526,14.3061603 10.0032422,14.3061603 C9.45854562,14.3061603 9.06947661,14.6822603 9.06947661,15.213988 C9.06947661,15.4863363 9.18619731,15.6938397 9.38073182,15.8883742 L13.7642427,20.1292265 C14.023622,20.3886058 14.2440945,20.4664196 14.5164428,20.4664196 Z M21.947661,29 C24.6581751,29 26.0199166,27.6512274 26.0199166,24.9796202 L26.0199166,12.036591 C26.0199166,9.36498379 24.6581751,8.01621121 21.947661,8.01621121 L18.3293191,8.01621121 L18.3293191,10.1042149 L21.9087541,10.1042149 C23.1926818,10.1042149 23.9319129,10.8045391 23.9319129,12.1533117 L23.9319129,24.8628995 C23.9319129,26.2116721 23.1926818,26.9119963 21.9087541,26.9119963 L7.09819361,26.9119963 C5.8012969,26.9119963 5.08800371,26.2116721 5.08800371,24.8628995 L5.08800371,12.1533117 C5.08800371,10.8045391 5.8012969,10.1042149 7.09819361,10.1042149 L10.6905975,10.1042149 L10.6905975,8.01621121 L7.07225567,8.01621121 C4.36174155,8.01621121 3,9.36498379 3,12.036591 L3,24.9796202 C3,27.6512274 4.36174155,29 7.07225567,29 L21.947661,29 Z" id="import" fill="#000000" fill-rule="nonzero"></path>
    </g>
</svg>
