<?xml version="1.0" encoding="utf-8"?>
<svg xmlns="http://www.w3.org/2000/svg" viewBox="0 0 30 30" fill="#000000"><path d="M 15 0 C 13.35499 0 12 1.3549904 12 3 L 10 3 L 8 3 C 6.3550302 3 5 4.3550302 5 6 L 5 24 C 5 25.64497 6.3550302 27 8 27 L 22 27 C 23.64497 27 25 25.64497 25 24 L 25 6 C 25 4.3550302 23.64497 3 22 3 L 20 3 L 18 3 C 18 1.3549904 16.64501 0 15 0 z M 15 2 C 15.564129 2 16 2.4358706 16 3 C 16 3.5641294 15.564129 4 15 4 C 14.435871 4 14 3.5641294 14 3 C 14 2.4358706 14.435871 2 15 2 z M 8 5 L 10 5 C 10 6.105 10.895 7 12 7 L 18 7 C 19.105 7 20 6.105 20 5 L 22 5 C 22.56503 5 23 5.4349698 23 6 L 23 24 C 23 24.56503 22.56503 25 22 25 L 8 25 C 7.4349698 25 7 24.56503 7 24 L 7 6 C 7 5.4349698 7.4349698 5 8 5 z M 19.980469 11.990234 A 1.0001 1.0001 0 0 0 19.292969 12.292969 L 14 17.585938 L 11.707031 15.292969 A 1.0001 1.0001 0 1 0 10.292969 16.707031 L 13.292969 19.707031 A 1.0001 1.0001 0 0 0 14.707031 19.707031 L 20.707031 13.707031 A 1.0001 1.0001 0 0 0 19.980469 11.990234 z" fill="#000000"/></svg>
