<?xml version="1.0" encoding="utf-8"?>
<svg xmlns="http://www.w3.org/2000/svg" viewBox="0 0 30 30" fill="#000000"><path d="M 9 3 C 8.447 3 8 3.447 8 4 L 8 6 C 8 6.334 8.1673125 6.6460312 8.4453125 6.8320312 L 13.527344 10.21875 A 1.5 1.5 0 0 0 13.5 10.5 A 1.5 1.5 0 0 0 15 12 A 1.5 1.5 0 0 0 16.5 10.5 A 1.5 1.5 0 0 0 16.472656 10.220703 L 21.554688 6.8320312 C 21.832687 6.6460313 22 6.334 22 6 L 22 4 C 22 3.447 21.553 3 21 3 L 9 3 z M 15 12 C 14.7255 12 14.451203 12.15575 14.345703 12.46875 L 12.765625 17.142578 L 7.8320312 17.199219 C 7.1710312 17.207219 6.8977344 18.051313 7.4277344 18.445312 L 11.386719 21.390625 L 9.9160156 26.099609 C 9.7200156 26.730609 10.436563 27.252141 10.976562 26.869141 L 15 24.015625 L 19.023438 26.869141 C 19.563438 27.252141 20.281984 26.730609 20.083984 26.099609 L 18.613281 21.390625 L 22.572266 18.445312 C 23.102266 18.050312 22.828016 17.206219 22.166016 17.199219 L 17.232422 17.142578 L 15.654297 12.46875 C 15.548797 12.15575 15.2745 12 15 12 z" fill="#000000"/></svg>
