<?xml version="1.0" encoding="UTF-8"?>
<svg viewBox="0 0 128 128" version="1.1" xmlns="http://www.w3.org/2000/svg" xmlns:xlink="http://www.w3.org/1999/xlink">
    <!-- Generator: Sketch 61.2 (89653) - https://sketch.com -->
    <title>Slice</title>
    <desc>Created with Sketch.</desc>
    <g id="Page-1" stroke="none" stroke-width="1" fill="none" fill-rule="evenodd">
        <path d="M64,16 C57.0430968,16 51.4096126,21.616643 51.4096126,28.5527489 C51.4096126,35.488857 57.0430968,41.1054978 64,41.1054978 C70.9569056,41.1054978 76.5903876,35.488857 76.5903876,28.5527489 C76.5903876,21.616643 70.9569056,16 64,16 Z M64,43.4591382 C55.0221954,43.4591382 45.4721004,47.2392274 45.4721004,47.2392274 L45.4721004,47.3105498 C42.4049812,47.9167905 39.9369792,50.1456178 39.0338341,53.0876672 L38.9622978,53.0876672 L31.4509871,72.6300148 C31.4509871,72.6300148 20.5417026,82.1337308 17.9306279,84.255572 C15.3195532,86.3774156 15.4894525,90.0950972 17.6444827,92.0297176 C19.799513,93.9554236 22.7414447,93.3759292 25.7280837,91.0312036 C27.883114,89.3462116 37.0844712,82.1604748 38.3900074,80.9034176 C39.6955459,79.64636 40.6702273,78.095096 41.3229954,76.8380388 C41.7790398,75.96434 45.9907396,68.163448 47.9758706,64.4992572 L47.9758706,83.5423476 C47.9758706,86.6627056 40.2320681,91.0846964 35.8147009,93.8127788 C30.2795798,97.2451704 25.9426926,99.5631496 25.9426926,104.297177 C25.9426926,109.690936 31.6745374,112 36.6731364,112 L43.4690842,112 C42.664302,110.849926 42.1814309,109.432392 42.1814309,107.649331 C42.1814309,98.528974 52.92976,96.6924224 59.3501412,95.5958396 C68.748222,93.9910848 75.5173432,92.8945016 75.5888792,92.8855868 C75.7140688,92.8677576 75.8929096,92.8945016 76.0180972,92.8855868 C76.0628068,92.876672 76.0449236,92.8855868 76.0896332,92.8855868 L76.1611696,92.8855868 L76.3042424,92.8855868 C76.3221276,92.8855868 76.3578956,92.876672 76.3757784,92.8855868 C77.5114176,93.0193172 78.3787948,93.9910848 78.3787948,95.1679048 C78.3787948,96.35364 77.466708,97.263002 76.3042424,97.3789004 L76.3042424,97.4502228 C76.3042424,97.4502228 69.6155988,98.4665688 60.1370404,100.089153 C52.6525562,101.372957 46.7597536,102.88856 46.7597536,107.649331 C46.7597536,110.849926 49.9341772,111.777118 53.0549473,112 L58.134024,112 L58.2055604,112 L85.9616416,112 C89.5742244,112 102.057307,111.84844 102.057307,104.939079 C102.057307,100.632986 98.5252024,98.3595852 94.2598516,95.5245172 C86.1673092,90.148588 80.0241296,86.315008 80.0241296,83.3997028 L80.0241296,64.5705796 C82.0092628,68.2347704 86.22096,75.9554228 86.6770044,76.8380388 C87.3297728,78.095096 88.3044564,79.64636 89.6099924,80.9034176 C90.9155312,82.1604748 100.125828,89.3462116 102.271916,91.0312036 C105.267499,93.3759292 108.200487,93.9554236 110.355517,92.0297176 C112.510548,90.0950972 112.680447,86.3774156 110.069372,84.255572 C107.458298,82.1337308 96.5490128,72.6300148 96.5490128,72.6300148 L89.0377024,53.0876672 L88.966166,53.0876672 C88.0630208,50.127786 85.5503092,47.8276386 82.4563632,47.2392274 C80.8915064,46.6419014 72.146196,43.4591382 64,43.4591382 Z" id="Shape" fill="#000000" fill-rule="nonzero"></path>
    </g>
</svg>
