<?xml version="1.0"?><svg fill="#000000" xmlns="http://www.w3.org/2000/svg" viewBox="0 0 30 30" width="300px" height="300px">    <path d="M 14 3 C 13.448 3 13 3.448 13 4 L 13 11.535156 L 6.4726562 7.7675781 C 5.9946562 7.4915781 5.3834219 7.6567656 5.1074219 8.1347656 L 4.1074219 9.8652344 C 3.8314219 10.343234 3.9946563 10.956422 4.4726562 11.232422 L 10.998047 15 L 4.4726562 18.767578 C 3.9946563 19.043578 3.8314219 19.656766 4.1074219 20.134766 L 5.1074219 21.865234 C 5.3834219 22.343234 5.9946563 22.508422 6.4726562 22.232422 L 13 18.464844 L 13 26 C 13 26.552 13.448 27 14 27 L 16 27 C 16.552 27 17 26.552 17 26 L 17 18.464844 L 23.525391 22.232422 C 24.003391 22.508422 24.616578 22.343234 24.892578 21.865234 L 25.892578 20.134766 C 26.168578 19.656766 26.004391 19.043578 25.525391 18.767578 L 19 15 L 25.525391 11.232422 C 26.003391 10.956422 26.168578 10.343234 25.892578 9.8652344 L 24.892578 8.1347656 C 24.616578 7.6567656 24.004391 7.4915781 23.525391 7.7675781 L 17 11.535156 L 17 4 C 17 3.448 16.552 3 16 3 L 14 3 z"/></svg>