<?xml version="1.0" encoding="UTF-8"?>
<svg width="30px" height="30px" viewBox="0 0 30 30" version="1.1" xmlns="http://www.w3.org/2000/svg" xmlns:xlink="http://www.w3.org/1999/xlink">
    <!-- Generator: Sketch 61.2 (89653) - https://sketch.com -->
    <title>Slice</title>
    <desc>Created with Sketch.</desc>
    <g id="Page-1" stroke="none" stroke-width="1" fill="none" fill-rule="evenodd">
        <path d="M14.9986175,1.00012214 C14.4471013,1.00874321 14.0066898,1.4622622 14.0142425,2.01379402 L14.0142425,5.01379402 C14.0091422,5.37442993 14.1986178,5.70987538 14.5101153,5.89168174 C14.8216129,6.0734881 15.2068721,6.0734881 15.5183696,5.89168174 C15.8298672,5.70987538 16.0193428,5.37442993 16.0142425,5.01379402 L16.0142425,2.01379402 C16.0179439,1.74349371 15.9120658,1.48320742 15.7207328,1.29224237 C15.5293998,1.10127733 15.2689102,0.995900409 14.9986175,1.00012214 Z M5.81111749,4.81262032 C5.40455006,4.81352183 5.03899021,5.06045989 4.88636976,5.43729524 C4.7337493,5.81413059 4.8244468,6.24585546 5.11580499,6.52941902 L7.23689869,8.65051282 C7.48771726,8.91174479 7.86016341,9.01697284 8.21060002,8.92561483 C8.56103663,8.83425683 8.8347053,8.56058816 8.9260633,8.21015155 C9.01742131,7.85971494 8.91219326,7.48726879 8.65096129,7.23645022 L6.52986749,5.11535652 C6.34112407,4.92133726 6.0817968,4.81210973 5.81111749,4.81262032 Z M13.3876652,9 C12.9515419,9.83393132 12.7004405,10.7744746 12.7004405,11.7739621 C12.7004405,15.1706817 15.540793,17.924654 19.0440529,17.924654 C19.7270485,17.924654 20.3836123,17.8170169 21,17.6232701 C19.953304,19.6253203 17.8165639,21 15.3436123,21 C11.8403524,21 9,18.2460277 9,14.849308 C9,12.1148129 10.8422907,9.79958995 13.3876652,9 Z M24.1861175,4.81262212 C24.5984012,4.80046323 24.9758606,5.04265883 25.136615,5.42250576 C25.2973695,5.8023527 25.2084411,6.24192755 24.9126805,6.52941902 L24.9126805,6.52941902 L22.7915865,8.65051282 C22.5407673,8.91174189 22.1683226,9.01696771 21.8178878,8.92560937 C21.467453,8.83425102 21.1937857,8.56058379 21.1024272,8.21014902 C21.0110688,7.85971424 21.1162945,7.4872695 21.3775235,7.23645022 L21.3775235,7.23645022 L23.4986175,5.11535652 C23.6797391,4.92894242 23.9263189,4.82036325 24.1861175,4.81262212 Z M2.01424249,14.013794 C1.65360657,14.0086937 1.31816112,14.1981693 1.13635477,14.5096669 C0.954548411,14.8211644 0.954548411,15.2064236 1.13635477,15.5179212 C1.31816112,15.8294187 1.65360657,16.0188943 2.01424249,16.013794 L5.01424249,16.013794 C5.37487841,16.0188943 5.71032385,15.8294187 5.89213021,15.5179212 C6.07393657,15.2064236 6.07393657,14.8211644 5.89213021,14.5096669 C5.71032385,14.1981693 5.37487841,14.0086937 5.01424249,14.013794 L2.01424249,14.013794 Z M25.0142425,14.013794 C24.6536066,14.0086937 24.3181611,14.1981693 24.1363548,14.5096669 C23.9545484,14.8211644 23.9545484,15.2064236 24.1363548,15.5179212 C24.3181611,15.8294187 24.6536066,16.0188943 25.0142425,16.013794 L28.0142425,16.013794 C28.3748784,16.0188943 28.7103239,15.8294187 28.8921302,15.5179212 C29.0739366,15.2064236 29.0739366,14.8211644 28.8921302,14.5096669 C28.7103239,14.1981693 28.3748784,14.0086937 28.0142425,14.013794 L25.0142425,14.013794 Z M7.92439869,21.074341 C7.66460012,21.082082 7.41802036,21.1906611 7.23689869,21.377075 L5.11580499,23.498169 C4.85457518,23.748988 4.74934877,24.1214331 4.84070701,24.4718684 C4.93206524,24.8223036 5.20573281,25.0959713 5.55616804,25.1873297 C5.90660327,25.278688 6.27904837,25.1734617 6.52986749,24.912232 L8.65096129,22.791138 C8.94672191,22.5036466 9.03565035,22.0640718 8.87489601,21.6842249 C8.71414166,21.3043779 8.33668236,21.0621823 7.92439869,21.074341 L7.92439869,21.074341 Z M22.0747895,21.074341 C21.6678662,21.0744476 21.30158,21.3210962 21.1484579,21.698111 C20.9953358,22.0751258 21.085912,22.507326 21.3775235,22.791138 L23.4986175,24.912232 C23.7494374,25.1734581 24.1218807,25.2786816 24.4723137,25.1873228 C24.8227466,25.095964 25.0964125,24.8222982 25.1877713,24.4718652 C25.2791301,24.1214322 25.1739066,23.7489889 24.9126805,23.498169 L22.7915865,21.377075 C22.6033153,21.1835424 22.3447912,21.074341 22.0747895,21.074341 L22.0747895,21.074341 Z M14.9986175,24.000122 C14.4471013,24.0087431 14.0066898,24.4622622 14.0142425,25.013794 L14.0142425,28.013794 C14.0091422,28.3744299 14.1986178,28.7098754 14.5101153,28.8916817 C14.8216129,29.0734881 15.2068721,29.0734881 15.5183696,28.8916817 C15.8298672,28.7098754 16.0193428,28.3744299 16.0142425,28.013794 L16.0142425,25.013794 C16.017944,24.7434937 15.9120658,24.4832074 15.7207328,24.2922423 C15.5293998,24.1012772 15.2689102,23.9959003 14.9986175,24.000122 Z" id="Shape" fill="#000000" fill-rule="nonzero"></path>
    </g>
</svg>