<svg fill="#000000" xmlns="http://www.w3.org/2000/svg" viewBox="0 0 30 30" width="300px" height="300px"><path d="M 14.953125 3.0019531 A 1.0001 1.0001 0 0 0 14.107422 3.5488281 L 9.1523438 13.365234 L 7.6015625 12.201172 A 1.0001 1.0001 0 0 0 6.0605469 12.658203 L 2.0605469 23.658203 A 1.0001 1.0001 0 0 0 3 25 L 27.132812 25 A 1.0001 1.0001 0 0 0 28.09375 23.726562 L 24.960938 12.726562 A 1.0001 1.0001 0 0 0 24.832031 12.445312 L 22.832031 9.4453125 A 1.0001 1.0001 0 0 0 21.292969 9.2929688 L 19.322266 11.263672 L 15.914062 3.59375 A 1.0001 1.0001 0 0 0 14.953125 3.0019531 z M 14.943359 6.3339844 L 17.591797 12.294922 L 17 13 L 15 11 L 13 14 L 11.71875 12.71875 L 14.943359 6.3339844 z M 21.845703 11.568359 L 23.082031 13.423828 L 23.376953 14.458984 L 22 14 L 21 16 L 19.892578 13.521484 L 21.845703 11.568359 z M 7.4785156 14.609375 L 8.90625 15.681641 A 1.0001 1.0001 0 0 0 9.1015625 15.796875 L 8 18 L 6.515625 17.257812 L 7.4785156 14.609375 z"/></svg>