<?xml version="1.0"?><svg fill="#000000" xmlns="http://www.w3.org/2000/svg" viewBox="0 0 30 30" width="300px" height="300px">    <path d="M28,12.184V7c0-1.105-0.895-2-2-2H4C2.895,5,2,5.895,2,7v5.184C3.163,12.597,4,13.696,4,15s-0.837,2.403-2,2.816V23 c0,1.105,0.895,2,2,2h22c1.105,0,2-0.895,2-2v-5.184c-1.163-0.413-2-1.512-2-2.816S26.837,12.597,28,12.184z M20.552,13.961 l-2.902,2.16l1.078,3.453c0.145,0.463-0.381,0.845-0.777,0.564L15,18.046l-2.951,2.092c-0.396,0.281-0.921-0.101-0.777-0.564 l1.078-3.453l-2.902-2.16c-0.389-0.289-0.188-0.907,0.297-0.913l3.617-0.042l1.158-3.427c0.155-0.459,0.805-0.459,0.96,0 l1.158,3.427l3.617,0.042C20.74,13.053,20.941,13.671,20.552,13.961z"/></svg>