<?xml version="1.0"?><svg fill="#000000" xmlns="http://www.w3.org/2000/svg" viewBox="0 0 30 30" width="300px" height="300px">    <path d="M 21.662109 2.0019531 C 20.196944 1.9711914 18.471562 2.3787813 16.96875 3.9257812 C 15.253921 5.6904392 14.779733 7.184512 14.654297 8.625 C 14.094912 7.009339 13.143228 5.3380442 10.863281 3.9902344 C 6.1872813 1.2262344 2 5.1269531 2 5.1269531 C 2 5.1269531 3.83425 5.2987813 5.53125 5.8007812 C 6.12725 5.9777812 7.4188125 4.8301875 7.8828125 4.9921875 C 8.3468125 5.1541875 7.59075 6.4802656 7.84375 6.5722656 C 8.45975 6.7972656 9.3042187 7.0336406 9.8242188 7.3066406 C 10.162219 7.4846406 10.941375 6.4920625 11.234375 6.6640625 C 11.462375 6.7980625 11.026969 7.9266094 11.417969 8.2246094 C 12.424111 8.993252 13.084637 9.5379738 13.650391 9.9609375 C 11.450086 9.9619404 8.8434579 10.156542 7.1816406 11.818359 C 3.1366406 15.863359 6 20 6 20 C 6 20 6.6504219 18.581422 7.6074219 16.982422 C 7.9434219 16.420422 7.2540156 14.956391 7.5410156 14.525391 C 7.8280156 14.094391 8.4854844 15.57775 8.6464844 15.34375 C 9.0374844 14.77475 9.4482813 14.232437 9.8632812 13.773438 C 11.296778 12.190143 12.667317 11.545443 13.705078 11.154297 C 13.409359 12.396042 13 14.531629 13 17.208984 C 13 21.189984 13.689828 25.316656 13.923828 26.597656 C 13.966828 26.834656 14.172062 27 14.414062 27 L 19.011719 27 C 19.413719 27 19.654781 26.550703 19.425781 26.220703 C 17.92629 24.062094 14.145608 17.694796 15.839844 10.667969 C 16.844901 10.598036 18.248813 10.563878 20.269531 11.087891 C 20.868531 11.242891 21.509437 11.468516 22.148438 11.728516 C 22.411438 11.835516 22.146047 10.237453 22.623047 10.439453 C 23.099047 10.641453 23.327969 12.242344 23.917969 12.527344 C 25.595969 13.338344 26.917969 14.167969 26.917969 14.167969 C 26.917969 14.167969 27.988672 9.237125 22.388672 8.078125 C 21.708672 7.937125 20.441266 7.9925937 19.572266 8.1835938 C 18.472647 8.426313 17.125889 8.8332943 15.916016 9.2988281 C 16.521226 8.6777296 17.366245 7.7954975 18.669922 6.5800781 C 19.059922 6.2160781 19.306969 6.0041563 19.792969 5.6601562 C 19.991969 5.5191562 18.798016 4.5772187 19.166016 4.3242188 C 19.533016 4.0712187 20.92625 4.8927031 21.40625 4.5957031 C 22.77125 3.7507031 25 2.8066406 25 2.8066406 C 25 2.8066406 23.545893 2.0415039 21.662109 2.0019531 z"/></svg>