<?xml version="1.0" encoding="utf-8"?>
<svg xmlns="http://www.w3.org/2000/svg" viewBox="0 0 30 30" fill="#000000"><path d="M 7 2 A 1 1 0 0 0 6 3 A 1 1 0 0 0 7 4 A 1 1 0 0 0 8 3 A 1 1 0 0 0 7 2 z M 11 2 A 1 1 0 0 0 10 3 A 1 1 0 0 0 11 4 A 1 1 0 0 0 12 3 A 1 1 0 0 0 11 2 z M 15 2 A 1 1 0 0 0 14 3 A 1 1 0 0 0 15 4 A 1 1 0 0 0 16 3 A 1 1 0 0 0 15 2 z M 19 2 A 1 1 0 0 0 18 3 A 1 1 0 0 0 19 4 A 1 1 0 0 0 20 3 A 1 1 0 0 0 19 2 z M 23 2 A 1 1 0 0 0 22 3 A 1 1 0 0 0 23 4 A 1 1 0 0 0 24 3 A 1 1 0 0 0 23 2 z M 5.984375 5.9863281 A 1.0001 1.0001 0 0 0 5 7 L 5 22 A 1.0001 1.0001 0 0 0 5.5136719 22.875 L 14.513672 27.875 A 1.0001 1.0001 0 0 0 15.486328 27.875 L 24.486328 22.875 A 1.0001 1.0001 0 0 0 25 22 L 25 7 A 1.0001 1.0001 0 0 0 23.841797 6 L 6.1542969 6 A 1.0001 1.0001 0 0 0 5.984375 5.9863281 z M 15 10.234375 C 15.20125 10.234375 15.402969 10.348625 15.480469 10.578125 L 16.638672 14.005859 L 20.255859 14.048828 C 20.740859 14.053828 20.941734 14.670937 20.552734 14.960938 L 17.650391 17.121094 L 18.728516 20.574219 C 18.873516 21.037219 18.347172 21.419672 17.951172 21.138672 L 15 19.046875 L 12.048828 21.138672 C 11.652828 21.419672 11.127484 21.037219 11.271484 20.574219 L 12.349609 17.121094 L 9.4472656 14.960938 C 9.0582656 14.671938 9.2591406 14.054828 9.7441406 14.048828 L 13.361328 14.005859 L 14.519531 10.578125 C 14.597031 10.348625 14.79875 10.234375 15 10.234375 z" fill="#000000"/></svg>
