<?xml version="1.0" encoding="utf-8"?>
<svg xmlns="http://www.w3.org/2000/svg" viewBox="0 0 30 30" fill="#000000"><path d="M 6.6015625 3 C 5.6875625 3 5 4 5 4 C -0.235 4 2.6532344 12.355891 1.1152344 13.587891 C 1.1152344 13.587891 2.058 14.753906 5 14.753906 L 5 15.751953 C 4.187 17.869953 -2.9605947e-16 17.087 0 21 L 8.0234375 21 C 8.7274375 20.574 11 19.392578 11 19.392578 C 10.457 18.812578 9.6736719 17.809781 9.3886719 17.050781 C 8.7646719 16.737781 8.237 16.369953 8 15.751953 L 8 14.742188 C 8.19 14.742188 8.7502656 14.698297 8.9472656 14.654297 C 8.5012656 13.967297 8.125 12.401438 8.125 11.523438 C 8.125 9.2904375 9.0866406 7.4537344 10.681641 6.3027344 C 10.200641 4.4617344 9.1325625 3 6.6015625 3 z M 23 3 C 20.777 3 19.412031 4.5292031 19.082031 6.5332031 C 20.698031 7.3992031 21.75 9.2661875 21.75 11.617188 C 21.75 12.352187 21.578578 13.059422 21.392578 13.607422 C 21.461578 13.878422 21.5 14.180625 21.5 14.515625 C 21.5 16.985625 19 19.449219 19 19.449219 C 19.543 19.686219 21.280234 20.569 21.990234 21 L 30 21 C 30 15.75 25.737 17.25 25 15 L 25 13.5 C 25.332 13.333 26.122656 12.183156 26.222656 11.285156 C 26.482656 11.265156 27 10.629547 27 10.060547 C 27 9.4915469 26.819109 9.2521562 26.662109 9.1601562 C 26.662109 9.1601562 27 8.409 27 7.5 C 27 5.679 26.508 4 25 4 C 25 4 24.567 3 23 3 z M 15 7 C 12.308 7 10.125 8.6214375 10.125 11.523438 C 10.125 12.750438 10.8125 13.707031 10.8125 13.707031 C 10.8125 13.707031 10.5 13.860625 10.5 14.515625 C 10.5 15.788625 11.318359 16.09375 11.318359 16.09375 C 11.432359 17.10175 13 18.578125 13 18.578125 L 13 20.263672 C 12.158 22.789672 7 21.125 7 27 L 23 27 C 23 21.105 17.842 22.789672 17 20.263672 L 17 18.578125 C 17 18.578125 18.567641 17.10175 18.681641 16.09375 C 18.681641 16.09375 19.5 15.528625 19.5 14.515625 C 19.5 13.813625 19.1875 13.707031 19.1875 13.707031 C 19.1875 13.707031 19.75 12.637188 19.75 11.617188 C 19.75 9.5721875 18.724 8 17 8 C 17 8 16.268 7 15 7 z" fill="#000000"/></svg>
