<?xml version="1.0" encoding="UTF-8"?>
<svg viewBox="0 0 30 30" version="1.1" xmlns="http://www.w3.org/2000/svg" xmlns:xlink="http://www.w3.org/1999/xlink">
    <!-- Generator: Sketch 63.1 (92452) - https://sketch.com -->
    <title>Slice</title>
    <desc>Created with Sketch.</desc>
    <g id="Page-1" stroke="none" stroke-width="1" fill="none" fill-rule="evenodd">
        <path d="M14.9414062,29.8828125 C23.1152344,29.8828125 29.8828125,23.1152344 29.8828125,14.9414062 C29.8828125,6.78222656 23.1005859,0 14.9267578,0 C6.76757812,0 0,6.78222656 0,14.9414062 C0,23.1152344 6.78222656,29.8828125 14.9414062,29.8828125 Z M14.9414062,27.3925781 C8.02734375,27.3925781 2.50488281,21.8554688 2.50488281,14.9414062 C2.50488281,8.04199219 8.01269531,2.49023438 14.9267578,2.49023438 C21.8408203,2.49023438 27.3779297,8.04199219 27.392607,14.9414062 C27.4072266,21.8554688 21.8554688,27.3925781 14.9414062,27.3925781 Z M12.3632812,20.3320312 L20.2001953,15.703125 C20.7714844,15.3515625 20.7568359,14.5458984 20.2001953,14.2236328 L12.3632812,9.56542969 C11.7626953,9.21386719 10.9863281,9.4921875 10.9863281,10.1513672 L10.9863281,19.7460938 C10.9863281,20.4199219 11.71875,20.7128906 12.3632812,20.3320312 Z" id="playcircle" fill="#000000" fill-rule="nonzero"></path>
    </g>
</svg>
