<?xml version="1.0" encoding="UTF-8"?>
<svg viewBox="0 0 128 128" version="1.1" xmlns="http://www.w3.org/2000/svg" xmlns:xlink="http://www.w3.org/1999/xlink">
    <title>plus</title>
    <g id="Page-1" stroke="none" stroke-width="1" fill="none" fill-rule="evenodd">
        <path d="M64.3125,117.375 C65.6458333,117.375 66.8541667,117.052083 67.9375,116.40625 C69.0208333,115.760417 69.8854167,114.916667 70.53125,113.875 C71.1770833,112.833333 71.5,111.6875 71.5,110.4375 L71.5,71.375 L109.5625,71.375 C110.854167,71.375 112.041667,71.0520833 113.125,70.40625 C114.208333,69.7604167 115.072917,68.8958333 115.71875,67.8125 C116.364583,66.7291667 116.6875,65.5208333 116.6875,64.1875 C116.6875,62.8958333 116.364583,61.7083333 115.71875,60.625 C115.072917,59.5416667 114.208333,58.6770833 113.125,58.03125 C112.041667,57.3854167 110.854167,57.0625 109.5625,57.0625 L71.5,57.0625 L71.5,17.9375 C71.5,16.6875 71.1770833,15.53125 70.53125,14.46875 C69.8854167,13.40625 69.0208333,12.5625 67.9375,11.9375 C66.8541667,11.3125 65.6458333,11 64.3125,11 C63.0625,11 61.8854167,11.3125 60.78125,11.9375 C59.6770833,12.5625 58.8020833,13.40625 58.15625,14.46875 C57.5104167,15.53125 57.1875,16.6875 57.1875,17.9375 L57.1875,57.0625 L19.0625,57.0625 C17.8125,57.0625 16.65625,57.3854167 15.59375,58.03125 C14.53125,58.6770833 13.6666667,59.5416667 13,60.625 C12.3333333,61.7083333 12,62.8958333 12,64.1875 C12,65.5208333 12.3333333,66.7291667 13,67.8125 C13.6666667,68.8958333 14.53125,69.7604167 15.59375,70.40625 C16.65625,71.0520833 17.8125,71.375 19.0625,71.375 L57.1875,71.375 L57.1875,110.4375 C57.1875,111.6875 57.5104167,112.833333 58.15625,113.875 C58.8020833,114.916667 59.6770833,115.760417 60.78125,116.40625 C61.8854167,117.052083 63.0625,117.375 64.3125,117.375 Z" id="plus" fill="#000000" fill-rule="nonzero"></path>
    </g>
</svg>
