<?xml version="1.0"?><svg fill="#000000" xmlns="http://www.w3.org/2000/svg" viewBox="0 0 30 30" width="300px" height="300px">    <path d="M 14.986328 2 C 13.336119 2.0078203 12 3.348 12 5 C 12 5.935 12.431578 6.6534219 12.892578 7.3574219 C 13.318578 8.0074219 12.783719 8.8596719 12.011719 8.7636719 C 9.7327188 8.4816719 7.4257813 8.0449219 7.4257812 8.0449219 L 7.4238281 8.046875 A 2 2 0 0 0 7 8 A 2 2 0 0 0 5 10 L 5 14.826172 C 5 15.736172 6.0064844 16.301594 6.7714844 15.808594 C 7.5044844 15.335594 8.2672031 14.920672 9.2832031 15.013672 C 10.538203 15.127672 11.637922 16.063016 11.919922 17.291016 C 12.367922 19.256016 10.888 21 9 21 C 8.13 21 7.4470625 20.625172 6.7890625 20.201172 C 6.0160625 19.703172 5 20.250922 5 21.169922 L 5 23.566406 C 5 25.108406 5.895 26 7 26 L 15 26 L 23 26 C 24.105 26 25 25.105 25 24 L 25 10 A 2 2 0 0 0 23 8 A 2 2 0 0 0 22.578125 8.046875 L 22.574219 8.0449219 C 22.574219 8.0449219 20.267281 8.4816719 17.988281 8.7636719 C 17.214281 8.8596719 16.683328 8.0045625 17.111328 7.3515625 C 17.618328 6.5775625 18.088328 5.7830781 17.986328 4.7050781 C 17.868328 3.4540781 16.932984 2.3600781 15.708984 2.0800781 C 15.463359 2.0238281 15.222072 1.9988828 14.986328 2 z"/></svg>