<svg fill="#000000" xmlns="http://www.w3.org/2000/svg" viewBox="0 0 30 30" width="300px" height="300px"><path d="M 9.5449219 4 C 5.9299219 4 3 6.9299219 3 10.544922 C 3 16.885922 10.421875 22.951656 13.796875 25.597656 C 13.796875 25.597656 14.394 26 15 26 C 15.606 26 16.203125 25.597656 16.203125 25.597656 C 16.428955 25.42049 16.742444 25.15699 17.001953 24.949219 C 17.311866 25.011582 17.533203 24.988281 17.533203 24.988281 L 17.570312 24.986328 L 17.605469 24.982422 C 18.739073 24.859281 20.60703 24.634808 22.466797 24.054688 C 24.326563 23.474567 26.243006 22.546454 27.328125 20.802734 C 28.600864 18.758487 27.986369 16.054874 25.976562 14.748047 C 26.601891 13.38356 27 11.974104 27 10.544922 C 27 6.9299219 24.070078 4 20.455078 4 C 17.000078 4 15 7 15 7 C 15 7 12.999922 4 9.5449219 4 z M 18.611328 12.996094 C 19.078801 12.979092 19.558122 13.098422 19.990234 13.367188 C 21.191448 14.114921 21.509766 15.273437 21.509766 15.273438 L 21.78125 16.273438 L 22.771484 15.966797 C 22.771484 15.966797 23.648631 15.64499 24.849609 16.392578 L 24.851562 16.392578 C 26.003604 17.109117 26.348307 18.593743 25.630859 19.746094 C 24.957978 20.827374 23.504077 21.635152 21.871094 22.144531 C 20.252368 22.649463 18.532544 22.865776 17.427734 22.986328 C 17.411343 22.981194 17.394326 22.975566 17.378906 22.970703 C 17.369665 22.961463 17.362061 22.952531 17.353516 22.943359 C 16.973646 21.898532 16.406811 20.258675 16.144531 18.582031 C 15.880137 16.89187 15.963861 15.229678 16.636719 14.148438 C 16.994988 13.572416 17.545571 13.199426 18.150391 13.058594 C 18.301595 13.023386 18.455504 13.001761 18.611328 12.996094 z"/></svg>