<?xml version="1.0" encoding="UTF-8"?>
<svg width="300px" height="300px" viewBox="0 0 30 30" version="1.1" xmlns="http://www.w3.org/2000/svg" xmlns:xlink="http://www.w3.org/1999/xlink">
    <!-- Generator: Sketch 61.2 (89653) - https://sketch.com -->
    <title>Slice</title>
    <desc>Created with Sketch.</desc>
    <g id="Page-1" stroke="none" stroke-width="1" fill="none" fill-rule="evenodd">
        <path d="M15,29 C15.4605263,29 15.8174342,28.6315789 15.8174342,28.1710526 L15.8174342,25.8684211 C21.1595395,25.4654605 25.4309211,21.1710526 25.8338816,15.8289474 L28.1710526,15.8289474 C28.6315789,15.8289474 29,15.4605263 29,15 C29,14.5394737 28.6315789,14.1825658 28.1710526,14.1825658 L25.8338816,14.1825658 C25.4309211,8.84046053 21.1595395,4.54605263 15.8174342,4.14309211 L15.8174342,1.82894737 C15.8174342,1.36842105 15.4605263,1 15,1 C14.5394737,1 14.1710526,1.36842105 14.1710526,1.82894737 L14.1710526,4.14309211 C8.84046053,4.54605263 4.56907895,8.84046053 4.16611842,14.1825658 L1.82894737,14.1825658 C1.36842105,14.1825658 1,14.5394737 1,15 C1,15.4605263 1.36842105,15.8289474 1.82894737,15.8289474 L4.16611842,15.8289474 C4.56907895,21.1710526 8.84046053,25.4654605 14.1710526,25.8684211 L14.1710526,28.1710526 C14.1710526,28.6315789 14.5394737,29 15,29 Z M15.8174342,23.9802632 L15.8174342,20.3766447 C15.8174342,19.9161184 15.4605263,19.5592105 15,19.5592105 C14.5394737,19.5592105 14.1710526,19.9161184 14.1710526,20.3766447 L14.1710526,23.9802632 C9.85361842,23.5888158 6.48026316,20.1924342 6.11184211,15.8289474 L9.62335526,15.8289474 C10.0838816,15.8289474 10.4523026,15.4605263 10.4523026,15 C10.4523026,14.5394737 10.0838816,14.1825658 9.62335526,14.1825658 L6.11184211,14.1825658 C6.48026316,9.80756579 9.85361842,6.41118421 14.1710526,6.01973684 L14.1710526,9.62335526 C14.1710526,10.0838816 14.5394737,10.4523026 15,10.4523026 C15.4605263,10.4523026 15.8174342,10.0838816 15.8174342,9.62335526 L15.8174342,6.01973684 C20.1463816,6.41118421 23.5197368,9.80756579 23.8881579,14.1825658 L20.3766447,14.1825658 C19.9161184,14.1825658 19.5476974,14.5394737 19.5476974,15 C19.5476974,15.4605263 19.9161184,15.8289474 20.3766447,15.8289474 L23.8881579,15.8289474 C23.5197368,20.1924342 20.1463816,23.5888158 15.8174342,23.9802632 Z" id="scope" fill="#000000" fill-rule="nonzero"></path>
    </g>
</svg>
