<svg fill="#000000" xmlns="http://www.w3.org/2000/svg" viewBox="0 0 30 30"><path d="M 14.984375 1 A 1.0001 1.0001 0 0 0 14.292969 1.2929688 L 10.292969 5.2929688 A 1.0001 1.0001 0 1 0 11.707031 6.7070312 L 14 4.4140625 L 14 17 A 1.0001 1.0001 0 1 0 16 17 L 16 4.4140625 L 18.292969 6.7070312 A 1.0001 1.0001 0 1 0 19.707031 5.2929688 L 15.707031 1.2929688 A 1.0001 1.0001 0 0 0 14.984375 1 z M 9 9 C 7.3550302 9 6 10.35503 6 12 L 6 24 C 6 25.64497 7.3550302 27 9 27 L 21 27 C 22.64497 27 24 25.64497 24 24 L 24 12 C 24 10.35503 22.64497 9 21 9 L 19 9 L 19 11 L 21 11 C 21.56503 11 22 11.43497 22 12 L 22 24 C 22 24.56503 21.56503 25 21 25 L 9 25 C 8.4349698 25 8 24.56503 8 24 L 8 12 C 8 11.43497 8.4349698 11 9 11 L 11 11 L 11 9 L 9 9 z"/></svg>
