<?xml version="1.0"?><svg fill="#000000" xmlns="http://www.w3.org/2000/svg" viewBox="0 0 30 30" width="300px" height="300px">    <path d="M 9 3 C 5.574 3 3.9309062 7.9717344 4.0039062 11.677734 C 4.0259063 12.813734 4.3345156 14.341703 4.6035156 15.470703 C 4.8165156 16.368703 5.622875 17 6.546875 17 L 10.339844 17 C 11.310844 17 12.139594 16.307562 12.308594 15.351562 C 12.551594 13.976562 12.866422 11.9975 12.982422 10.4375 C 13.128422 8.4845 12.784 3 9 3 z M 21 3 C 17.216 3 16.871578 8.4845 17.017578 10.4375 C 17.133578 11.9975 17.449406 13.977562 17.691406 15.351562 C 17.860406 16.307562 18.690156 17 19.660156 17 L 23.453125 17 C 24.377125 17 25.184437 16.368703 25.398438 15.470703 C 25.666438 14.342703 25.975047 12.813734 25.998047 11.677734 C 26.069047 7.9717344 24.426 3 21 3 z M 5.765625 21 C 5.336625 21 4.998625 21.360062 5.015625 21.789062 C 5.123625 24.504062 5.878 27 9 27 C 10.597 27 11.982 25.405 12 23 L 12 21.75 C 12 21.336 11.664 21 11.25 21 L 5.765625 21 z M 18.748047 21 C 18.334047 21 17.999047 21.334047 17.998047 21.748047 C 17.998047 22.176047 17.997 22.687 18 23 C 18.018 25.404 19.403 27 21 27 C 24.086 27 24.876328 24.234109 24.986328 21.787109 C 25.005328 21.358109 24.663375 21 24.234375 21 L 18.748047 21 z"/></svg>