<?xml version="1.0"?><svg fill="#000000" xmlns="http://www.w3.org/2000/svg" viewBox="0 0 30 30" width="300px" height="300px">    <path d="M 14.984375 2.9863281 A 1.0001 1.0001 0 0 0 14 4 L 14 5 L 6.7324219 5 C 6.2594219 5 5.8014531 5.1686094 5.4394531 5.4746094 L 3.4179688 7.1875 A 1 1 0 0 0 3 8 A 1 1 0 0 0 3.4355469 8.8261719 L 5.4394531 10.525391 C 5.8014531 10.831391 6.2594219 11 6.7324219 11 L 24 11 C 24.552 11 25 10.552 25 10 L 25 8 L 25 6 C 25 5.448 24.552 5 24 5 L 16 5 L 16 4 A 1.0001 1.0001 0 0 0 14.984375 2.9863281 z M 14 13 L 14 15 L 5 15 C 4.448 15 4 15.448 4 16 L 4 18 L 4 20 C 4 20.552 4.448 21 5 21 L 14 21 L 14 26 A 1.0001 1.0001 0 1 0 16 26 L 16 21 L 23.267578 21 C 23.740578 21 24.198547 20.831391 24.560547 20.525391 L 26.582031 18.8125 A 1 1 0 0 0 27 18 A 1 1 0 0 0 26.582031 17.1875 L 26.578125 17.183594 A 1 1 0 0 0 26.564453 17.173828 L 24.560547 15.474609 C 24.198547 15.168609 23.740578 15 23.267578 15 L 16 15 L 16 13 L 14 13 z"/></svg>