<?xml version="1.0" encoding="UTF-8"?>
<svg viewBox="0 0 30 30" version="1.1" xmlns="http://www.w3.org/2000/svg" xmlns:xlink="http://www.w3.org/1999/xlink">
    <!-- Generator: Sketch 61.2 (89653) - https://sketch.com -->
    <title>social</title>
    <desc>Created with Sketch.</desc>
    <g id="Page-1" stroke="none" stroke-width="1" fill="none" fill-rule="evenodd">
        <g id="Group" transform="translate(1.500000, 2.500000)" fill="#000000" fill-rule="nonzero">
            <path d="M26.5,24 C26.2238576,24 26,24.2238576 26,24.5 C26,24.7761424 26.2238576,25 26.5,25 C26.7761424,25 27,24.7761424 27,24.5 C27,24.2238576 26.7761424,24 26.5,24 Z" id="Path"></path>
            <path d="M24.537,20.997 C24.808,22.048 25.448,23.103 26.678,24.035 L26.417,24.991 C24.141,24.991 22.254,23.858 20.847,22.578 C20.939,22.062 24.537,20.997 24.537,20.997 Z" id="Path"></path>
            <path d="M25.1672939,12.541172 C25.4483643,12.8388766 25.7032935,13.159139 25.9282034,13.5 C27.3572658,15.6658075 27.3572658,18.3341925 25.9282034,20.5 C24.499141,22.6658076 21.8581248,24 18.9999999,24 C16.6009653,24 14.3548941,23.0599972 12.850117,21.4772052 C17.3423652,21.2363359 21.4222221,19.097976 23.6913429,15.7500001 C24.3715217,14.7464299 24.8598551,13.6771758 25.1563433,12.5792903 Z" id="Combined-Shape"></path>
            <path d="M11.9999999,0 C16.0830353,0 19.8559156,1.90598912 21.8974334,5 C23.9389511,8.09401073 23.9389511,11.9059893 21.8974334,15 C19.8559156,18.0940109 16.0830353,20 11.9999999,20 C7.91696458,20 4.1440843,18.0940108 2.10256661,15 C0.0610489152,11.9059893 0.0610489152,8.09401075 2.10256661,5 C4.1440843,1.90598917 7.91696458,0 11.9999999,0 Z M11.9998942,8.31156955 C11.5688147,7.79072388 10.8686895,7.45989928 10.0806404,7.50407695 C9.96806208,7.51038831 9.85386108,7.52414151 9.73819543,7.54626845 C9.06886798,7.67407966 8.49228965,8.10157034 8.20695882,8.66081936 C7.2156342,10.6043898 10.0366508,12.5499667 11.3579725,13.3276349 C11.7486358,13.557455 12.2511527,13.557455 12.6418159,13.3276349 C13.9631376,12.5499667 16.7848208,10.6043898 15.7928296,8.66081936 C15.5074987,8.10157034 14.9302538,7.67407966 14.261593,7.54626845 C13.3356012,7.36925294 12.4918899,7.71631736 11.9998942,8.31156955 Z" id="Path-2"></path>
            <path d="M2.5,20 C2.22385763,20 2,20.2238576 2,20.5 C2,20.7761424 2.22385763,21 2.5,21 C2.77614237,21 3,20.7761424 3,20.5 C3,20.2238576 2.77614237,20 2.5,20 Z" id="Path"></path>
            <path d="M8,17 C8,15.879 8.218,14.806 8.601,13.8 L3,11 C3,11 7.078,16.434 2.322,20.034 L2.583,20.99 C4.859,20.99 6.746,19.857 8.153,18.577 C8.061,18.062 8,17.538 8,17 Z" id="Path"></path>
        </g>
    </g>
</svg>
