<?xml version="1.0" encoding="utf-8"?>
<svg xmlns="http://www.w3.org/2000/svg" viewBox="0 0 30 30" fill="#000000"><path d="M 15 4 C 12.878904 4 11.179736 4.7689628 10.09375 6.109375 C 9.7556358 6.0453515 9.3990782 6 9 6 C 7.283 6 6.75 7.1259531 6.75 7.1269531 C 5.215 7.1269531 4.5 8.6809531 4.5 10.501953 C 4.5 11.410953 4.8964844 12.162109 4.8964844 12.162109 C 4.7374844 12.253109 4.4750156 12.543547 4.5410156 13.060547 C 4.6640156 14.022547 5.0797031 14.265156 5.3457031 14.285156 C 5.4467031 15.183156 6.662 16.333 7 16.5 L 7 18 C 6.25 20.25 0 18.75 0 24 L 4 24 C 4 25.105 4.895 26 6 26 L 24 26 C 25.105 26 26 25.105 26 24 L 30 24 C 30 18.75 23.75 20.25 23 18 L 23 16.5 C 23.338 16.333 24.553297 15.183156 24.654297 14.285156 C 24.920297 14.265156 25.335984 14.022547 25.458984 13.060547 C 25.524984 12.543547 25.262516 12.253109 25.103516 12.162109 C 25.103516 12.162109 25.5 11.410953 25.5 10.501953 C 25.5 8.6809531 24.785 7.1269531 23.25 7.1269531 C 23.25 7.1259531 22.717 6 21 6 C 20.544373 6 20.142262 6.0560497 19.765625 6.1386719 C 19.320032 5.6995546 18.794062 5.370096 18.1875 5.2011719 C 17.4985 4.5381719 16.433 4 15 4 z M 15 6 C 16.616 6 17.117187 7.0585938 17.117188 7.0585938 C 18.562188 7.0585938 19.236328 8.5223281 19.236328 10.236328 C 19.236328 11.091328 18.863281 11.798828 18.863281 11.798828 C 19.013281 11.884828 19.259266 12.157531 19.197266 12.644531 C 19.081266 13.550531 18.689453 13.779828 18.439453 13.798828 C 18.343453 14.642828 17.318 15.843 17 16 L 17 18.353516 C 17.706 20.471516 24 19.059 24 24 L 6 24 C 6 19.059 12.294 20.470516 13 18.353516 L 13 16 C 12.682 15.843 11.655547 14.643828 11.560547 13.798828 C 11.310547 13.779828 10.918734 13.549531 10.802734 12.644531 C 10.740734 12.158531 10.988672 11.884828 11.138672 11.798828 C 11.138672 11.798828 10.765625 11.013375 10.765625 10.234375 C 10.765625 7.920375 12.006 6 15 6 z" fill="#000000"/></svg>
