<?xml version="1.0" encoding="UTF-8"?>
<svg width="300px" height="300px" viewBox="0 0 30 30" version="1.1" xmlns="http://www.w3.org/2000/svg" xmlns:xlink="http://www.w3.org/1999/xlink">
    <!-- Generator: Sketch 61.2 (89653) - https://sketch.com -->
    <title>Slice</title>
    <desc>Created with Sketch.</desc>
    <g id="Page-1" stroke="none" stroke-width="1" fill="none" fill-rule="evenodd">
        <path d="M14.984375,0.98632812 C14.4328589,0.994949193 13.9924473,1.44846818 14,2 L14,5 C13.9948997,5.36063592 14.1843753,5.69608136 14.4958728,5.87788772 C14.8073704,6.05969408 15.1926296,6.05969408 15.5041272,5.87788772 C15.8156247,5.69608136 16.0051003,5.36063592 16,5 L16,2 C16.0037014,1.72969969 15.8978233,1.4694134 15.7064903,1.27844836 C15.5151573,1.08748332 15.2546677,0.982106392 14.984375,0.98632812 Z M5.796875,4.79882631 C5.39030757,4.79972781 5.02474772,5.04666587 4.87212727,5.42350122 C4.71950681,5.80033657 4.81020431,6.23206145 5.1015625,6.515625 L7.2226562,8.6367188 C7.47347477,8.89795077 7.84592093,9.00317882 8.19635753,8.91182081 C8.54679414,8.82046281 8.82046281,8.54679414 8.91182081,8.19635753 C9.00317882,7.84592093 8.89795077,7.47347477 8.6367188,7.2226562 L6.515625,5.1015625 C6.32688158,4.90754324 6.06755431,4.79831571 5.796875,4.79882631 Z M24.171875,4.7988281 C23.9120764,4.80656924 23.6654966,4.91514841 23.484375,5.1015625 L21.363281,7.2226562 C21.102052,7.47347548 20.9968263,7.84592022 21.0881847,8.196355 C21.1795432,8.54678978 21.4532105,8.820457 21.8036453,8.91181535 C22.1540801,9.0031737 22.5265248,8.89794787 22.777344,8.6367188 L24.898438,6.515625 C25.1941986,6.22813353 25.283127,5.78855868 25.1223725,5.40871174 C24.9616181,5.02886481 24.5841587,4.78666922 24.171875,4.7988281 Z M15,8 C18.8659932,8 22,11.1340068 22,15 C22,18.8659932 18.8659932,22 15,22 C11.1340068,22 8,18.8659932 8,15 C8,11.1340068 11.1340068,8 15,8 Z M15,10 C12.2385763,10 10,12.2385763 10,15 C10,17.7614237 12.2385763,20 15,20 C17.7614237,20 20,17.7614237 20,15 C20,12.2385763 17.7614237,10 15,10 Z M2,14 C1.63936408,13.9948997 1.30391864,14.1843753 1.12211228,14.4958728 C0.940305922,14.8073704 0.940305922,15.1926296 1.12211228,15.5041272 C1.30391864,15.8156247 1.63936408,16.0051003 2,16 L5,16 C5.36063592,16.0051003 5.69608136,15.8156247 5.87788772,15.5041272 C6.05969408,15.1926296 6.05969408,14.8073704 5.87788772,14.4958728 C5.69608136,14.1843753 5.36063592,13.9948997 5,14 L2,14 Z M25,14 C24.6393641,13.9948997 24.3039186,14.1843753 24.1221123,14.4958728 C23.9403059,14.8073704 23.9403059,15.1926296 24.1221123,15.5041272 C24.3039186,15.8156247 24.6393641,16.0051003 25,16 L28,16 C28.3606359,16.0051003 28.6960814,15.8156247 28.8778877,15.5041272 C29.0596941,15.1926296 29.0596941,14.8073704 28.8778877,14.4958728 C28.6960814,14.1843753 28.3606359,13.9948997 28,14 L25,14 Z M7.9101562,21.060547 C7.65035763,21.068288 7.40377787,21.1768671 7.2226562,21.363281 L5.1015625,23.484375 C4.84033269,23.735194 4.73510628,24.1076391 4.82646452,24.4580744 C4.91782275,24.8085096 5.19149032,25.0821773 5.54192555,25.1735356 C5.89236078,25.264894 6.26480588,25.1596677 6.515625,24.898438 L8.6367188,22.777344 C8.93247943,22.4898526 9.02140787,22.0502778 8.86065352,21.6704309 C8.69989917,21.2905839 8.32243987,21.0483882 7.9101562,21.060547 L7.9101562,21.060547 Z M22.060547,21.060547 C21.6536238,21.0606536 21.2873375,21.3073022 21.1342154,21.684317 C20.9810933,22.0613318 21.0716695,22.493532 21.363281,22.777344 L23.484375,24.898438 C23.7351949,25.1596641 24.1076382,25.2648876 24.4580712,25.1735288 C24.8085042,25.08217 25.08217,24.8085042 25.1735288,24.4580712 C25.2648876,24.1076382 25.1596641,23.7351949 24.898438,23.484375 L22.777344,21.363281 C22.5890728,21.1697484 22.3305487,21.060547 22.060547,21.060547 L22.060547,21.060547 Z M14.984375,23.986328 C14.4328588,23.9949491 13.9924473,24.4484681 14,25 L14,28 C13.9948997,28.3606359 14.1843753,28.6960814 14.4958728,28.8778877 C14.8073704,29.0596941 15.1926296,29.0596941 15.5041272,28.8778877 C15.8156247,28.6960814 16.0051003,28.3606359 16,28 L16,25 C16.0037015,24.7296997 15.8978233,24.4694133 15.7064903,24.2784483 C15.5151573,24.0874832 15.2546677,23.9821063 14.984375,23.986328 Z" id="Shape" fill="#000000" fill-rule="nonzero"></path>
    </g>
</svg>
