<?xml version="1.0" encoding="UTF-8"?>
<svg width="300px" height="300px" viewBox="0 0 128 128" version="1.1" xmlns="http://www.w3.org/2000/svg" xmlns:xlink="http://www.w3.org/1999/xlink">
    <!-- Generator: Sketch 61.2 (89653) - https://sketch.com -->
    <title>Slice</title>
    <desc>Created with Sketch.</desc>
    <g id="Page-1" stroke="none" stroke-width="1" fill="none" fill-rule="evenodd">
        <path d="M80.118171,107.321122 L107.321122,80.1611456 C113.638394,73.8868474 113.50947,67.5265999 107.364096,61.3812256 L65.334893,19.4379716 C62.1621555,16.2652341 60.3636099,16.0074492 56.0040703,16 L39.4211818,16 C34.8658693,16 33.4906807,17.1173408 30.2246076,20.3404392 L20.3404392,30.2246076 C17.0743661,33.4906807 16,34.908844 16,39.4641564 L16,55.7945217 C16,60.3068594 16.2148732,62.1547692 19.4379716,65.3778676 L61.3382509,107.364096 C67.4836252,113.50947 73.8008981,113.59542 80.118171,107.321122 Z M46.6409222,50.3797163 C43.2888998,50.3797163 40.7533958,47.758263 40.7533958,44.4921899 C40.7533958,41.1831422 43.2888998,38.6046635 46.6409222,38.6046635 C50.0359192,38.6046635 52.5284486,41.1831422 52.5284486,44.4921899 C52.5284486,47.758263 50.0359192,50.3797163 46.6409222,50.3797163 Z" id="tag" fill="#000000" fill-rule="nonzero"></path>
    </g>
</svg>
