<?xml version="1.0"?><svg fill="#000000" xmlns="http://www.w3.org/2000/svg" viewBox="0 0 30 30">    <path d="M 15.425781 3.0078125 C 15.167 3.0304844 14.908063 3.1031719 14.664062 3.2324219 L 4.0625 8.8574219 C 3.0865 9.3754219 2.7154219 10.584547 3.2324219 11.560547 L 6.0449219 16.861328 C 6.2979219 17.338328 6.5875781 17.750766 6.8925781 18.134766 C 6.9725781 16.801766 7.3197344 15.422063 8.0527344 14.039062 L 10.865234 8.7382812 C 11.561234 7.4272813 12.915391 6.6113281 14.400391 6.6113281 C 15.049391 6.6113281 15.697437 6.772125 16.273438 7.078125 L 20.023438 9.0683594 L 17.367188 4.0625 C 16.978687 3.3305 16.202125 2.9397969 15.425781 3.0078125 z M 14.574219 8.6191406 C 13.797875 8.5509844 13.021312 8.9437813 12.632812 9.6757812 L 9.8203125 14.976562 C 6.6913125 20.875563 12.211266 26.287625 12.447266 26.515625 C 12.514266 26.579625 12.591828 26.634734 12.673828 26.677734 C 12.755828 26.720734 12.841594 26.752484 12.933594 26.771484 C 13.254594 26.839484 20.826078 28.371656 23.955078 22.472656 L 26.767578 17.173828 C 27.284578 16.197828 26.9135 14.98575 25.9375 14.46875 L 15.335938 8.8457031 C 15.091938 8.7162031 14.833 8.6418594 14.574219 8.6191406 z M 14.630859 14.263672 C 14.824984 14.280734 15.018172 14.336594 15.201172 14.433594 C 15.933172 14.821594 16.212219 15.730891 15.824219 16.462891 C 15.435219 17.194891 14.527875 17.472984 13.796875 17.083984 C 13.064875 16.695984 12.785828 15.788641 13.173828 15.056641 C 13.464828 14.507641 14.048484 14.212484 14.630859 14.263672 z M 20.814453 17.544922 C 21.008578 17.561984 21.203719 17.617844 21.386719 17.714844 C 22.118719 18.102844 22.395813 19.010187 22.007812 19.742188 C 21.618813 20.473188 20.711469 20.753234 19.980469 20.365234 C 19.248469 19.977234 18.969422 19.069891 19.357422 18.337891 C 19.648422 17.788891 20.232078 17.493734 20.814453 17.544922 z M 12.832031 19.96875 L 18.132812 22.78125 C 17.356813 24.24425 15.540172 24.801391 14.076172 24.025391 C 12.612172 23.249391 12.055031 21.43275 12.832031 19.96875 z"/></svg>
