<?xml version="1.0" encoding="utf-8"?>
<svg xmlns="http://www.w3.org/2000/svg" viewBox="0 0 30 30" fill="#000000"><path d="M 6 5 A 2 2 0 0 0 4 7 A 2 2 0 0 0 6 9 A 2 2 0 0 0 8 7 A 2 2 0 0 0 6 5 z M 13 5 L 11 7 L 13 9 L 23 9 C 23.552 9 24 8.552 24 8 L 24 6 C 24 5.448 23.552 5 23 5 L 13 5 z M 6 13 A 2 2 0 0 0 4 15 A 2 2 0 0 0 6 17 A 2 2 0 0 0 8 15 A 2 2 0 0 0 6 13 z M 13 13 L 11 15 L 13 17 L 27 17 C 27.552 17 28 16.552 28 16 L 28 14 C 28 13.448 27.552 13 27 13 L 13 13 z M 6 21 A 2 2 0 0 0 4 23 A 2 2 0 0 0 6 25 A 2 2 0 0 0 8 23 A 2 2 0 0 0 6 21 z M 13 21 L 11 23 L 13 25 L 19 25 C 19.552 25 20 24.552 20 24 L 20 22 C 20 21.448 19.552 21 19 21 L 13 21 z" fill="#000000"/></svg>
