<?xml version="1.0"?><svg fill="#000000" xmlns="http://www.w3.org/2000/svg" viewBox="0 0 30 30" width="300px" height="300px">    <path d="M24,4H6C4.895,4,4,4.895,4,6v18c0,1.105,0.895,2,2,2h18c1.105,0,2-0.895,2-2V6C26,4.895,25.105,4,24,4z M19.707,15.707 l-5.56,5.56c-0.188,0.188-0.442,0.293-0.707,0.293s-0.52-0.105-0.707-0.293l-2.453-2.453c-0.391-0.391-0.391-1.023,0-1.414 s1.023-0.391,1.414,0l1.746,1.746l4.853-4.853c0.391-0.391,1.023-0.391,1.414,0S20.098,15.316,19.707,15.707z M24,10H6V6h18V10z"/></svg>