<svg xmlns="http://www.w3.org/2000/svg" viewBox="0 0 128 128" width="300px" height="300px"><path fill="#000" fill-rule="nonzero" d="M68.7574496,35.345816 L72.8506014,37.1670825 C73.7919168,37.5859251 74.5386625,38.3471526 74.9393495,39.2963385 L81.6664755,55.238844 L93.4439206,49.0020843 C95.2922477,48.0229533 97.55477,48.6153258 98.7011567,50.3087588 L98.9291696,50.6883188 C99.9083006,52.5366459 99.3159281,54.7991682 97.6224951,55.945555 L97.2429351,56.1735678 L81.5536465,64.4847958 C79.4493264,65.5995362 76.8419063,64.6710332 75.9157871,62.4771526 L72.606,54.635 L69.263,66.332 L84.7020124,79.6045035 C86.8757035,81.4732182 86.8125118,84.8070199 84.6900371,86.6090909 L84.2679842,86.9282976 L63.6507144,100.783811 C61.5370204,102.204286 58.6720103,101.642321 57.2515354,99.5286271 C55.9257587,97.5558461 56.3269076,94.9285852 58.104798,93.4321529 L58.5067194,93.1294481 L74.0968499,82.6473812 L61.8460084,72.1118789 L59.9351575,71.7134775 L53.887315,91.3429917 C53.7371887,91.8299906 53.5077322,92.2875918 53.209243,92.6977757 L52.8881243,93.0914864 L37.0184705,110.495723 C35.3025879,112.37753 32.386084,112.512039 30.5042769,110.796156 C28.7479235,109.194666 28.5136615,106.547301 29.8853088,104.671457 L30.203844,104.281962 L45.3750637,87.6384648 L52.363576,64.9803626 C52.3980331,64.8685863 52.4363923,64.759002 52.4784634,64.651722 L58.329,44.181 L51.2293502,45.024276 L48.7844426,60.4881428 C48.4576312,62.5541063 46.6254317,64.0077077 44.5829072,63.9076502 L44.1424761,63.8620857 C42.0765126,63.5352744 40.6229112,61.7030749 40.7229687,59.6605504 L40.7685331,59.2201192 L43.6946236,40.7226113 C43.9548108,39.0778174 45.188035,37.7752568 46.7812797,37.4046468 L47.2242665,37.3271207 L66.6295334,35.0236681 C67.3549053,34.9375647 68.0900692,35.0488621 68.7574496,35.345816 Z M73.1820023,16 C77.7659813,16 81.4820304,19.7160492 81.4820304,24.3000281 C81.4820304,28.884007 77.7659813,32.6000562 73.1820023,32.6000562 C68.5980234,32.6000562 64.8819742,28.884007 64.8819742,24.3000281 C64.8819742,19.7160492 68.5980234,16 73.1820023,16 Z"/></svg>