<?xml version="1.0"?><svg fill="#000000" xmlns="http://www.w3.org/2000/svg" viewBox="0 0 30 30" width="300px" height="300px">    <path d="M 22.560547 2.0097656 C 21.04025 1.9494375 19.500844 2.4972031 18.339844 3.6582031 C 16.841016 5.1570308 16.706781 6.9599657 17.451172 8.65625 L 16.380859 9.7246094 L 20.275391 13.619141 L 21.345703 12.548828 C 23.040789 13.291797 24.843261 13.156739 26.341797 11.658203 C 27.889797 10.110203 28.347563 7.8904531 27.726562 5.9394531 L 24.330078 9.3378906 L 21.396484 8.6035156 L 20.662109 5.6699219 L 24.060547 2.2714844 C 23.572797 2.1162344 23.067312 2.029875 22.560547 2.0097656 z M 10 8 C 9.2982765 8 8.661333 8.2507318 8.1503906 8.6542969 L 8.1210938 8.6640625 L 3.4785156 12.414062 L 3.4785156 12.419922 A 3 3 0 0 0 2 15 A 3 3 0 0 0 2.8085938 17.044922 L 2.8085938 17.046875 L 2.8183594 17.056641 A 3 3 0 0 0 2.9453125 17.181641 L 10.394531 24.511719 A 1.5 1.5 0 0 0 11.5 25 A 1.5 1.5 0 0 0 12.982422 23.71875 A 2 2 0 0 0 14 24 A 2 2 0 0 0 16 22 A 2 2 0 0 0 15.976562 21.716797 A 2 2 0 0 0 17 22 A 2 2 0 0 0 19 20 A 2 2 0 0 0 21 18 A 2 2 0 0 0 20.378906 16.552734 L 20.376953 16.552734 L 13.001953 9.203125 L 14 8 L 10 8 z M 4.5527344 21.552734 L 2.8066406 23.298828 C 1.7306406 24.374828 1.7306406 26.118359 2.8066406 27.193359 C 3.8826406 28.269359 5.6261719 28.269359 6.7011719 27.193359 L 8.4472656 25.447266 L 4.5527344 21.552734 z"/></svg>