<?xml version="1.0" encoding="UTF-8"?>
<svg width="300px" height="300px" viewBox="0 0 30 30" version="1.1" xmlns="http://www.w3.org/2000/svg" xmlns:xlink="http://www.w3.org/1999/xlink">
    <!-- Generator: Sketch 63.1 (92452) - https://sketch.com -->
    <title>Slice</title>
    <desc>Created with Sketch.</desc>
    <g id="Page-1" stroke="none" stroke-width="1" fill="none" fill-rule="evenodd">
        <path d="M25.8497513,25.8460887 C26.3477982,25.3333934 26.3477982,24.4984324 25.8497513,24.0003856 L16.4747513,14.6107371 L25.8497513,5.23573711 C26.3477982,4.73769024 26.3624467,3.88808086 25.8497513,3.39003399 C25.337056,2.87733868 24.4874467,2.87733868 23.9893998,3.39003399 L14.6143998,12.765034 L5.23939978,3.39003399 C4.74135291,2.87733868 3.8770951,2.86269024 3.37904822,3.39003399 C2.88100135,3.9027293 2.88100135,4.73769024 3.37904822,5.23573711 L12.7540482,14.6107371 L3.37904822,24.0003856 C2.88100135,24.4984324 2.86635291,25.3480418 3.37904822,25.8460887 C3.89174353,26.3441356 4.74135291,26.3441356 5.23939978,25.8460887 L14.6143998,16.4710887 L23.9893998,25.8460887 C24.4874467,26.3441356 25.3517045,26.358784 25.8497513,25.8460887 Z" id="xmark" fill="#000000" fill-rule="nonzero"></path>
    </g>
</svg>
