<?xml version="1.0" encoding="UTF-8"?>
<svg width="128px" height="128px" viewBox="0 0 128 128" version="1.1" xmlns="http://www.w3.org/2000/svg" xmlns:xlink="http://www.w3.org/1999/xlink">
    <title>xmark-bold</title>
    <g id="Page-1" stroke="none" stroke-width="1" fill="none" fill-rule="evenodd">
        <path d="M112.6875,112.710996 C115.875,109.460996 115.875,104.148496 112.75,101.023496 L75.8125,64.0859955 L112.75,27.0859955 C115.875,23.9609955 115.9375,18.5859955 112.6875,15.3984955 C109.5,12.2109955 104.125,12.2109955 101,15.3359955 L64.0625,52.2734955 L27.0625,15.3359955 C24.0625,12.2734955 18.5625,12.1484955 15.375,15.3984955 C12.1875,18.5859955 12.25,24.0859955 15.3125,27.0859955 L52.25,64.0859955 L15.3125,101.023496 C12.25,104.085996 12.1875,109.523496 15.375,112.710996 C18.625,115.898496 24.0625,115.835996 27.0625,112.835996 L64.0625,75.8359955 L101,112.773496 C104.125,115.898496 109.5,115.898496 112.6875,112.710996 Z" id="xmark-bold" fill="#000000" fill-rule="nonzero"></path>
    </g>
</svg>